<?xml version="1.0" encoding="utf-8"?>
<!-- Generator: Adobe Illustrator 25.2.0, SVG Export Plug-In . SVG Version: 6.00 Build 0)  -->
<svg version="1.1" id="Layer_1" xmlns="http://www.w3.org/2000/svg" xmlns:xlink="http://www.w3.org/1999/xlink" x="0px" y="0px"
	 viewBox="0 0 728.8 769" style="enable-background:new 0 0 728.8 769;" xml:space="preserve">
<style type="text/css">
	.st0{fill:#000755;stroke:#000000;stroke-miterlimit:10;}
</style>
<path class="st0" d="M730,1c-17-1-35,1-52.3,0.8c-2.3-0.1-4.5-0.2-6.2-0.2c-16.6-0.2-34.6-0.4-50.3-0.4
	c-203.5-0.2-401-0.8-608.5-0.8c-6.6,0-12,5.4-12,12v708c0,6.6,5.5,12,12.1,11.9c2.8,0,5.5-1,7.6-2.8c31.8-27,93.9-45,126.1-54.1
	c120.3-33.9-23.2-66.7,18.2-97c34-24.9,255.8,15,228.1-54c-38.1-95,17.3-170.9,31.9-215c30-90.9,157.7-27.9,192-72
	c30-38.6-0.1-115.4,40.7-137.4c16.3-8.8,26.6-18.4,36.1-29c1.4-1.7,2.7-3.2,4.1-4.9C713,47,720,23,730,1L730,1z"/>
<path class="st0" d="M0.7,769v-8C0.4,763.7,0.4,766.3,0.7,769z"/>
</svg>
