<svg id="Layer_1" data-name="Layer 1" xmlns="http://www.w3.org/2000/svg" viewBox="0 0 858.45 768"><defs><style>.cls-1{fill:#0a205c;opacity:0.64;}.cls-2{fill:#133a9f;}.cls-3{fill:#22315c;}</style></defs><path class="cls-1" d="M0,657.78c176.1,9.54,230.4-13.08,239.12-41.37,8.87-28.79-30.39-59.17-18.24-80.69,19.2-34,127.09,34.86,189.47-8.27,62.12-43,5.64-146.17,69.91-216.2,70.33-76.63,199.27-8.89,238.11-79.65,23.21-42.29,3.27-112.88-21.28-121-4.79-1.59-7.67-.11-31.41,0-19.25.1-32.09-.8-37.49-1-20.55-.88-151.1-1.35-473.17-1Z" transform="translate(1 -0.5)"/><path class="cls-2" d="M-.43,768.5a32.85,32.85,0,0,1,0-8c5.48-44.6,102.48-72.8,145.77-85,120.27-33.88-23.25-66.67,18.16-97,34-24.88,255.77,15,228.1-54-38.1-95,17.33-170.88,31.9-215,30-90.92,157.72-27.89,192-72,44.57-57.35,13-92,223-12,20.57,7.84,22.33-11.05,15-41.23C827.43,76.82,730.63,1.53,620.05,1.39,412.58,1.13,211.45.5-.43.5" transform="translate(1 -0.5)"/><path class="cls-3" d="M-.79,562a20.4,20.4,0,0,1,0-5.84C3.82,523.58,85.47,503,121.92,494.07c101.24-24.75-19.57-48.7,15.28-70.86,28.59-18.17,215.32,11,192-39.44-32.07-69.4,14.59-124.83,26.86-157.06,25.27-66.41,132.77-20.37,161.63-52.59,37.52-41.89,11-67.2,187.72-8.76,17.32,5.72,18.81-8.07,12.64-30.12C696.11,56.75,614.62,1.75,521.54,1.65,346.89,1.46,177.57,1-.79,1" transform="translate(1 -0.5)"/></svg>