<?xml version="1.0" encoding="utf-8"?>
<!-- Generator: Adobe Illustrator 25.2.0, SVG Export Plug-In . SVG Version: 6.00 Build 0)  -->
<svg version="1.1" id="Layer_1" xmlns="http://www.w3.org/2000/svg" xmlns:xlink="http://www.w3.org/1999/xlink" x="0px" y="0px"
	 viewBox="0 0 787.3 646.8" style="enable-background:new 0 0 787.3 646.8;" xml:space="preserve">
<style type="text/css">
	.st0{opacity:0.37;fill:#0000FF;enable-background:new    ;}
	.st1{fill:url(#SVGID_1_);}
	.st2{fill:url(#SVGID_2_);}
</style>
<path class="st0" d="M392,202.3c-1.3-8.3-1.9-16.6-2-25c-0.5-66.6,37-168.7,109-177c58.1-6.7,76.4,111,139,109
	c50.1-1.6,76.6-74.7,113-65c20.2,5.4,30.5,32.8,36,54"/>
<linearGradient id="SVGID_1_" gradientUnits="userSpaceOnUse" x1="13.9069" y1="431.095" x2="794.0476" y2="537.8056" gradientTransform="matrix(1 0 0 1 -6 -124.72)">
	<stop  offset="0" style="stop-color:#537EC5"/>
	<stop  offset="0.59" style="stop-color:#293A80"/>
</linearGradient>
<path class="st1" d="M787.3,653c-406.8,0-722.3-2.5-743.9,0c-3.6,0.4-50.2-50.1-42.5-103.7c7.9-54.9,30.3-81.2,138.5-104.9
	c117.2-25.7,106.3,0.9,158.3-28.5c53-30-18.8-89,26.4-207.3c8.4-22,57.9-111.2,190.2-105c134.4,6.4,261.4,30.8,273-32.4"/>
<linearGradient id="SVGID_2_" gradientUnits="userSpaceOnUse" x1="271.4106" y1="420.6679" x2="792.3685" y2="709.6411" gradientTransform="matrix(1 0 0 1 -6 -124.72)">
	<stop  offset="0" style="stop-color:#537EC5"/>
	<stop  offset="0.85" style="stop-color:#293A80"/>
</linearGradient>
<path class="st2" d="M791,652.6c-274.8,0-580-1.9-594.6,0c-2.4,0.3-0.4-3.8,1.2-9.2c12.2-42.4,61.4-137,134.4-155.9
	c79.1-20.4,93.4,0.7,128.4-22.6c35.9-23.8-12.7-70.4,17.8-164.1c5.7-17.4,39.1-88,128.4-83c90.7,5.1,176.5,24.4,184.3-25.6"/>
</svg>
