<svg id="Layer_1" data-name="Layer 1" xmlns="http://www.w3.org/2000/svg" viewBox="0 0 728.81 769.05"><defs><style>.cls-1{fill:#000755;stroke:#000;stroke-miterlimit:10;}</style></defs><path class="cls-1" d="M714.61,1.59a11,11,0,0,0-1.9-.14C693.48,1.54,652.56.8,621.2.8,417.71.6,220.19,0,12.67,0A12,12,0,0,0,.7,12v708a12,12,0,0,0,19.67,9.14c31.83-27,93.88-45,126.13-54.06,120.3-33.9-23.2-66.7,18.2-97,34-24.9,255.8,15,228.1-54-38.1-95,17.3-170.9,31.9-215,30-90.9,157.7-27.9,192-72,30-38.6-.1-115.4,40.7-137.4C690,82,698.66,61.38,724.65,36a12,12,0,0,0,3.29-11.46c-1.14-4.65-2.2-9.3-3.3-13.91a12,12,0,0,0-9.81-9Z" transform="translate(0.02 0.5)"/><path class="cls-1" d="M.7,768.5v-8A35.67,35.67,0,0,0,.7,768.5Z" transform="translate(0.02 0.5)"/></svg>