<svg id="Layer_1" data-name="Layer 1" xmlns="http://www.w3.org/2000/svg" viewBox="0 0 382.78 206.13"><defs><style>.cls-1{fill:#2f448a;}</style></defs><path class="cls-1" d="M204.38,83.4c-1.28-25.06-.85-29-2.26-3.25,1.14-25-1-14-2.71,8.16,1.07-18.85,0-10.21-1.71,3.87,1-15.89,2.62-29.62-1.93-7.21,4.26-24.32,8.36-33.43-1-11.2,9.36-22.82,9.57-23-1.1-1.16,10.62-22.08,7.61-17.19-2.35,5.86,9.8-22.44,4.05-6.89-1.24,10.84,4.83-15,3.81-12.07-1.29.85,4.3-17.2,7.87-25.62-2.72-7.22,9.65-23,4.77-9.69-5.93,1.56,9-16.48,9-18.91-3.2-3,11.07-15.22.47,1.47-3.33,7.57,1.77-8.84,3.51-12.5-3.46-6.21,5.09-5.19-1.84,2.59-3.58,4.29-2.42,10.17-4.91-3.17-7.46,5-2.55,3-5.16-1.66-7.81,5.93-2.64.21-5.33-6.34-8-3.5-1.36,3.52-2.73,4.79-4.1-3-1.37.33-2.75.86-4.13,3.71-2.76-2.15-5.66,7.64-8.31,2.28-1.5.65-5.14,6.66-4.17,5.83-3.52,4.16-4.46,3.87-4.15-4.32-4.17,4.9-9.36,4.15-8.22,1.51-5.52,10.54-12,15.88-8.06,5.76-7,12.83-10.19,13.64-7.8-1.85-3.82,8.73-4.27,9.4-3.78-4.39-2.08,14.1-5,21.94-3.69,3.75-1.77,15.62-6.66,22.88-4.58,7.91-1.37,8-2,11.87-1.58,11.47,0-.15.37-1.39.82-3.64s1.07-5.54,1.77-9.83a40.33,40.33,0,0,1-4.12,11.68c-1.53,3-3.33,5.56-1.77,5.9-5.45,3.25-5.1,2.16.19-2.27-5.35,4.51-8.08,6.36-1.25,3.27-2.9.22-1.32-2,.57-5.08,1.2-2.49,3.79-6.6,4.63-11.13-.85,4.45-3.12,8.35-4.25,10.72-1.65,2.78-3,4.7-.65,4.27-5.92,2.33-3-1.07.3-7.57-3.26,6.14-4.53,7.7-.16,4.24-1.43-.49-.36-3,.6-6.14a45,45,0,0,0,2.44-11.54,37.64,37.64,0,0,1-3,11c-1.17,3-2.37,5.3-.86,5.44-5.26,3.31-5.63,1.51-1.85-6-2,4-6.47,8.7-5.44,8.33-2.73,3.18-1.22,2.53,4.28,0-5.46,1.51-5.38-.19-3.31-4.13a28.78,28.78,0,0,1,1.82-5,36.42,36.42,0,0,0,1.86-7.16,25.23,25.23,0,0,1-3.31,7.94c-1.6,2.54-3.25,4.65-3.6,5.4-3.84,5.12-4.63,7.31,3.73,4.94-5.59,2.8-11,6.1-9.24,2.64-5.45,4.39-7.18,5.43-3.53.62-4.54,4.54,1.46-.35,11-5.28-5.77,3.39-11.74,7.71-10.26,4-5.43,5.24-7.16,6.79-3.16,1.65-4.29,5.45-3.23,4.76,2.19-.38-1.89,4.29,3.8.67,10.48-2.75-10.75,3.49-12.74,3.28-8.9-3.27-1.84,2.38,1.19-2,3.9-6.1.39-.53,3-6.11,4.72-8.18-1.74,2-4.63,7.74-5.23,8.2-3,4.18-6.41,8.93-4.8,6.25-3.5,5.51-4.37,7.54-.2,3.41-2.17,5,1.78,3,8.9-.39-7.3,3.85-14.72,8.76-14,3.44-5.76,6.45-7.2,7.42-2.56.54-5,6.76-4,5.7,1-1.19-.62,5.36,6.26,0,13.54-4.54-7.3,4.51-14.86,10.35-14.78,4.77-5.22,7.22-6.46,8.45-1.53,1.24-5,7.39-4,6.84,1.2-.31-.3,6,7.1.79,14.94-3.6-7.86,4.06-13.5,7.49-12.59,1.56-4.68,5.76-4.79,4.22-.81-2.78-3.33,5-1.29.92,2.6-5.61.29.85,1.8-.64,3.62-2.86s3.51-6.61,5.43-7.22c-1.93.62-3.75,5.09-5.73,7.41s-3.68,3.86-4.12,3c-4.16,6.8-6.35,11-3,5.69-4.33,7.32-4.44,9.22-.08,3-.7,6.41,4.93,2.79,13.09-1.7-8.23,4.77-16.59,10.95-17.72,4.08-4.72,8.15-5.87,8.67-.89.32-5.2,8.31-4.38,7.77-.33-.6,1.3,6.91,9,.62,17.15-4.68-8.15,5.29-16.23,11.83-18,4.82-4,8.52-5,9.08,0,.51-5,8.59-4.08,8.17-.12-.35,1.74,7.11,9.72.69,17.94-4.62-6.57,4.69-12.6,8.9-12.79,2.59-4.64,7.08-5.75,7-1.62-.69-5.16,7.37-6.38,7.56-6-.47.33,6.62,2.75,2.21,7-5.26-2.71,5.29-1,1.54,2.27-4.83.58.89,2-.64,3.7-2.37,1.6-2.21,3-7.13,4.69-6.41-1.75-.74-3.15,4.22-4.83,6.46-1.74,1.76-3.28,3.34-3.95,2.41-3.43,6.46-5.16,10.22-2.47,4.78-4.41,7.6-7.14,12.28-8.16,5.54-.14,8.2,1,8,6.13.19-4.29,8.06-3.33,8.25.71.67.81,6.61,6.82,2,13.28-3.21-6.49,5.31-13.73,11.13-15.58,4.33-4.07,8.42-5.49,9.36-1.21.78C36,141.05,33.12,143.23,30,134.63c2.79,8.62,5.3,6.46,10.5-2.64-4.32,8.74-3.2,7.84,0-.85,2.42,6.86,9.22.81,15.53-5-6.31,5.85-13.39,12.11-16.15,5.21-3.22,8.81-4.46,9.77-.27.87-5.18,9.27-8.33,11.59-12.15,3.08,3.6,8.63,6.55,6.7,11.61-2.62-4.23,9.08-3.18,8.54-.45-.38,3,7.3,9.82,1.37,16.42-4.66-6.62,6-13.16,11.51-15.89,4.18-2.77,8.66-3.8,8.48.41-.58-5.05,9-7.62,9.88-10.6,1.47,3.32,7.34,5.87,2.78,10.66-6.37-3.81,7.69-2.88,4.41-.27-3.75,1.54,1.47,3.73-.1,5.92-2.65s4.26-8.49,5.91-8.51c-1.65,0-3.76,6-6,8.55s-4.48,4.16-6.09,2.7c-2.65,8.2-3.63,11.49.14,3.72-4.82,9.21-7.63,13.86-11.4,6.59,3.14,8.39,5.72,7.55,10.59-1.68-4.18,9.26-3.35,9.5-1.33.67,3.33,7.38,9.62,1.71,16.15-4.7C46.76,133.69,40,139.91,36,132.57c-1.92,9.16-2.87,9.66,1.12.25-4.75,9.65-8.43,11.62-13.11,3.28,4.6,8.29,8.15,6.1,12.84-3.62-4,9.41-3.14,8.7-1.45-.48,4.15,7.06,10.81.57,17.09-6.09-6.28,6.66-13,13.2-17.26,6.15-1.68,9.2-2.55,9.92,1.37.47-4.66,9.76-8.43,12-13.28,3.77,4.75,8.3,8.46,6.39,13.05-3.37-3.91,9.53-3.15,9.12-1.74-.11,4.35,7.37,11,1.15,17.5-5.57-6.53,6.69-12.84,12.52-16.82,5.11-1.47,9-2.23,8.78,1.81-.71-4.7,9.5-7.78,10.47-11.66,2.2,4.29,7.24,7.2,2.73,11.91-6.85-3.86,8.33-3.19,5.19-1.13-3.28,1.91,1.53,4.27-.11,6.56-2.81s4.54-8.76,6.16-9.15c-1.62.39-3.86,6.44-6.15,9.13s-4.66,4.34-6.57,2.8c-2.06,8.46-2.75,11.56,1.1,3.23-4.7,9.56-7.63,14-11.93,6.81,3.86,8.19,6.88,7.06,11.56-2.47-4,9.46-3.32,9.5-1.94.52,4.08,7.15,10.31,1.06,16.62-5.76-6.3,6.84-12.83,13.28-17.29,6.18-1.32,9.18-2.06,9.66,1.84.13-4.57,9.77-8.24,11.66-13,3.49,4.8,7.94,8.4,5.26,13-4.58-3.91,9.36-3.17,8.09-1.64-1,4.47,6.17,10.93-1.26,16.48-8.07-5.55,6.81-12,14.2-16.41,8-1.54,9.11-2.28,10.31,1.63.95-4.63,9.81-8.16,12.36-12.87,4.43,4.65,8,8.19,5.81,12.79-4-3.91,9.44-3.19,8.58-1.8-.56,4.46,6.57,10.89-.4,16.76-7.29-5.87,6.85-11.76,13.14-15.55,6.48-1.47,8.72-2.13,8.6,2-.64-4.7,9.25-7.12,10.2-10.17,2.17,3.8,6.65,6.43,1.41,11-7.71-3.61,7.36-2.88,3.76-.6-4.15,1.57.83,3.66-1.66,5.53-4,1.95-3.21,3.92-12.17,4.88-8.54-.95-3.63-2.85,5.21-4.69,8.37-1.77,2.23-3.72,4.66-5.14,3.8-2.19,7.68-2.87,11,.7,3.79-4.48,8.78-6.75,13.33-9.75,6.62C32,137.35,34,135,38.65,126.14c-3.91,8.3-3.22,6.81-1.27-1.28,1.66,2.11,3.83,1.16,6.09-1s4.61-6.27,6.65-8.6c-2.73,3-5.44,7.46-7.91,9.87s-4.71,3.32-6.46.87c-1.39,8-1.86,7.15,2.36-1.72-4,7.8-3.6,4.09-1.53-4.27,1.66.58,3.86-2.69,5.76-5.35,2-4.08,4.5-16.57,5.15-10.25-.65-6.24-3.06,6.31-5,10.34-1.83,2.66-3.93,5.83-5.49,5.17-2,8.19-2.47,11.34,1.47,3.57-4.17,8.5-3.86,8.17-2.49.3,1.62,1.82,3.66.31,5.84-2.5s4.57-9.71,6.66-10.26c-2.1.48-4.3,6.9-6.15,9.2s-3.45,3.31-4.61,1.35c-1.29,6.55-1.55,4.86,2.06-3-3.07,5.64-2.39.73-.31-5.79,1.32-2,3.5-9.32,3.92-6.1,1.87-8.08,4.34-21.83,3.18-8.18.81-12.92-2.29,2.73-3.78,8.83-.17-2.44-.89,1.24-.29,2.27-.76-.85-.32-3.64-.28-1.81,1.32-5.48,4.66-22.16,3.26-9.51,1.31-12.71-2.69,5.51-4.32,10.37-.43-.32-1.14,3.45.06,2.57-1.35,1.28-1-.62-.48-1.3,1.46-3.37,5.36-21,4.56-10.25-.23-8.84-1.42-5.49-2.87,2,1.12-5.94,2.34-12,2.88-14.41s.24-1.28-1.7,7.17c2.11-9.51,3.61-16.44,4.07-18.31.27-1.9-.61,1.23-3.36,11.82,2.73-11.73,4.88-20.17,5.14-23s-2.2,0-5.72,10.57c3.51-10.59,6.33-14.6,6.11-13.13s-3.25,8.33-6.68,19.3c3.4-11.37,6.45-18.44,6.47-20.11S45.81,63.73,42,73.86c3.76-10.2,8-17.57,7.83-19.49s-5.48,2.05-9.56,12.11c2.07-6.74,7-12.88,8.34-16.36s1.25-4.77-.26-3.24-6.52,6.66-8.77,13.72c2.25-7,7.27-12.37,8.84-14.13s1.78-.72.67,2.64S44,58.54,41.88,65.72C44,58.53,48,52,49.41,48c2.8-7.84,1.59-6.59-1.18,11,4.16-26.39,4.49-24.07,4.49,2.34C52.73,35,52.23,31,58,57,52.24,31,52.26,31.17,63.9,55.2c-11.62-24-11.12-20.89,6.53-.22-17.59-20.76-16.46-17.14,7-2.4-23.25-14.58-17.8-10.33,7.46-2-24.12-6.07-7.86-4.93,7.81-1.18-12.25-.31,4.59,2.24,8.05,0,2.39-7.88,5.47,4.31,8.23-1.5,2.76.18,5.54,1,8.31-1.52,2.78-6.19,5.55-2.85,8.32-1.39,2.76-6.79,5.5-3.08,8.22-1.63,2.72,7,5.41.94,8.06,1.48,2.65-1.14,5.26,8.69,7.8-5.45,1.28,3.11,2.54-.19,3.78,7,2.08-2.76,8.82-1.9,3.69,4.36,7.21-2.12,12.69.59,3.57-8,10.88,2.66,15.43-2.51,3.47-4.93,13.08,6.83,21.08,10.76,1.68,8.15,19.9,4.87,23.85,5.89,1.65,4.5,22.76,1,27.05,1.88,3.19-5,24.36,5.07,26.29,2.49,3.05-7.6,23.68,9.91,25.79,8.11,2.89-4.43,23.18,11.36,20.37,6.58,1.38-7.69,19.3,13.92,24.86,17.13,1.33,4.92,23.75,13.51,28.23,14.35,2.54,9.89,25.76,4.78,27.41,3.72,2.35,3.49,25.09.1,29.39-6.68,2.14-10.32,27.29,3.66,27,5.51,1.93,9.08,25-3.53,28.35-8.74,1.71-5.48,26.66-3.42,30.48-10.7,2.7-10.81,27.8.35,27.11,2.63,1.69,11.49,25.42-8.85,27-12,.58-5.85,26.44-6.16,27.06-8,0-7.23,27-.77,26.74.27.13,5.37,26.61-5.06,25.19-2,.22,8,25-9.94,25.38-10.72.29-.92,25.09-9.79,23.31-6.28,1.73,8.09,21.58-14.36,17.6-7.68,1.09,8.84,16.51-16.52,16.11-15.9,1.16,1.65,14.95-17.56,19.6-25.17.58-7.87,19-17.3,16.4-12.81.57,5.41,15.83-18.21,12.93-13.82.56,5.18,12.37-19,6.14-11.39.53,11.42,5.61-22.6,1.38-16,.5,10.21.92-24.52.26-22.58.47,2.88-.12-24,3.17-33.69.76-9.38,2.42-23.91-.92-13,.51,11.6C202.84,64.92,203.1,58.72,204.38,83.4Z" transform="translate(-12.94 -24.78)"/><path class="cls-1" d="M371.8,115c20.78,14,25.94,13.53,3.66,17.61,22.3-4,19.15-3.49-3.95-9.22,23.1,5.74,27.87,4.87,6.6,12.07,21.27-7.19,16.08-6.14-7.48-7.29,23.56,1.15,29,.06,8.16,8.41,20.85-8.35,14.82-7.1-8.8-6.68,23.62-.42,28.26-1.39,6.57,5,21.67-6.41,15.35-5.43-7.35-14.94,22.7,9.5,26.32,9.05,3.43,11.73,22.86-2.71,15.95-2.26-5.4-15.83,21.35,13.59,25.57,13.61,2.07,14.66,23.42-1.05,13.51-1-7.51-14.13,21,13.19,30.58,13.16,7.22,15.78,23.38-2.5,15.12-1.28-8.88-6.07,24,4.79,32.28,3.58,9,7.07,23.2-3.54,12.05-2.59-10.81-10.67,22.86,8.08,31.13,7.63,7.35,8.75,23.63-1.22,8.22-2-11.24-13.06,19.45,11.08,33.33,12.06,9.7,13.41,23.64-1.13,10,0-11.8-4.34,21.8,4.3,35.21,3.28,11.66,5.66,23.46-2.39,6.74-1.33-13.87-5.42,20.61,4.09,35.9,3.26,12.53,6,23.28-2.57,4.77,0-14.84.38,19.61-.43,35.63-2.58,12.45-1.55,22.91-1.52,1.16-3-14.86-9.23,16,6.25,31.93,7.87,10.43,5.52,20.9,1.6-2.86-4.71-12.94-14.15,10.08,9.43,27.94,15.22,9.46,12.21,18,3-2.69-3.19-12.06-11.67,9.37,8.5,25.59,14.14,9.56,11,15.25,2.78-4.38-4.43-12.25-13.07,7.86,8.65,25.72,15.61,11.1,13.8,14.53,3.15-3.29-.43-13.88-4.94,10.59,4.52,25,7.78,11.78,6,11.54,1.73-7.42-2-17.59-5.42,10.16,3.4,20.34,6,12.51,5.49,5.62,1.57-7.9.41-18.64.32,10.73.07,18.38.57,14.35.85,2.48,1.22-7,2.5-17.53,6,10.51-3.49,16.82-5.08,14.39-5.76a160.26,160.26,0,0,0-17.64,2.5c10.83-2,15.19-3,13.13-3.73-1.1-.59-8.69-1-19.84-1.62,11.09.5,15.76.8,14.89,1.57s-7.27,2-18.34,4.39c22-4.93,19.1-5.12-3.51-5.14,22.2-.1,14.14,1.56-7.2,4.19,19.88-3.83,8.24,1.79-7.42,2.18,12.7-4,.19-3.21-7.6-1.86,3.37,3-5,.68-7.78,1.22-2.62.52-5.26,1.07-7.93,1.39s-5.35.66-8.05,1.15a57.84,57.84,0,0,0-8.17,2.06c-5.47-1.49-11-6.34-16.55,2.88-5.56,4.35-11.15,6.94-16.74,3.19a25.6,25.6,0,0,1-16.73,3.06c-5.55-1.8-11.08,2.31-16.56,3l-31.92,5.82-10.1,1.84c-3.31.61-8.43,0-9.74,1.78-4.75-.66-11-3-9.34,1.71-5.51-3.59-12-9.6-6.52-2.29-8.33-8.69-8.45-7.56-2.37,3.91-7.44-8.7-14.26-16.22-8.46-4.29-7.39-13.15-5.9-12,4.21-.16-10.62-12.43-17.49-18.09-11.42-3.82-6.7-14-1.2-6.37,7.29,8.22-4.6-7-9.22-12.48-12.27-14.31s-4.63,0-2.87,7.8c-2.37-7.71-2.39-9.34-.68-7.06,1.33,2.29,4.5,8.53,8,16.57a73.86,73.86,0,0,0-6.08-11.1c-2.09-3.09-5.15-5.41-5.83-6.88-4.35-2.65-7.82-1.34-4.15,5.6-4-7.05-2.43-9.06,1.49-7.27-.62,1.26,2,3.19,4.17,6.1.9,2.91,3.29,6.78,4.94,11.3-1.69-4.57-4.49-8.47-5.58-11.38-2.73-2.91-6.34-4.76-5.55-6.12-4.27-.71-8.29-.48-5.23-.3-5,1.67-5.14,3.71.59,7.3-7.51-6.91-4.5-7.61,2.52-4.59-3.09,1.43-.52,3.81,3.18,7.23-.51,3,3.5,7.55,5,12-1.5-4.58-6.8-9.44-6.33-12.54-4.7-3.53-7.75-5.89-3.51-7.15-6.82-1.47-13.51-1.6-8.75-3.12-7.25,2-5.9,3.31,3.7,6.59-9.68-3.38-12.48-5-5.71-8.34-5.47,1.48,1,.13,9.26.29-6.44.76-4.91,2.16,1.22,4.2-1.47,3,5.19,6.78,7.71,11.4-2.53-4.62-10.42-8.51-9-11.63-6.93-2-8.66-3.41-1.17-4.18-6.91.48-12.37,1.25-8.26-1.55-7.57,2.43-10.75,3.75-4.83.25-7.68,4.41-4.8,5.38,7.55,8.18-12.37-2.78-15.91-3.45-8.27-7.84-6.21,3.73-3.44,2.65,4.42.18-4.57,3.11,1,2.44,8.42,2.26-8.46.63-7.45,2.48.07,4.89-2.44,3.23,5.93,7.78,8.72,12.72-2.45-4.64-9-8.88-6.79-11.73-6.49-2.48-7.82-4.1-.73-4.59-8.92-.78-16.65.43-10.83-1.8-7.77,3.43-5.27,4.86,5.87,8.37-8.95-1.64-14.41-2.2-8.35-6.43-9,2-10.36,1.48-3.75-3.72-7.26,4.22-6.36,3.35,1.2-1.14-5.14,4.62.6,2.82,9.88,1.7-9.31,1.19-15.27,3.17-10.09-1.39-7.67,4.6-8.77,5.71-1.36,1.58-6.88,5.28-5.8,6.12,3.39,4.27-6.5,4.23-1.29,5.11,8,7.14-11.39-3.9-14.44-5-6.22-7.92-6.83,2.59.23,2.41,9.93,4.75-8.52-.17-8.23,2.21-.55,5.75-4.28,2.37,3.2,7.68,6,12.2-3.25-5.1-14.38-11.24-9.47-14.33-9.71-3.12-9.64-5.77,1.38-5.29-9.31-.7-16.63,0-11.16-4.67-9.17,3.37-11.2,3.93-4.26-1.46-7.83,5.43-8.35,6.56-.29,2-6.08,6.13-1.22,5.95,10,6.84-11.29-.91-17.09-.45-11.87-7.38-7.93,5.17-7.69,3.65-.48-2.88-6.87,6.14-5.56,5.57,2.54.32-4.3,6.09,3.34,4.14,13.41,3.71-13.09-.14-14.66,2.75-4.44,3.12-6.81,3.21-2.33,4.42,6.2,6.48-5.35,1.56-.74,4,4.51,7.2-5.25-3.19-10.28-5.67-4.93-7.31-8.85-2-13.82-3.1-7-6.62-10.6,0-9.52-2.82,4.22-2.67-10.65.62-19.35,3.34-16.54-4.2-7.32,6.63-8.49,6.82-2.15-.64-6.86,7.71-7.42,10.09-1.48,2.81-3.09,8.92,2.36,8,14.37,8-12,.06-17.78,1.19-15-7.87-5.83,7.51-5.53,5.53,1.21-2.3-6.42,7.75-5.76,8.47,1.18,1.52-2.93,8.24,5,6.11,16.34,6.08-11.14.43-15.44,2.16-7.62-1.55-8.38,4.48-7.79,5.81,2.53,4.81-8.27,3.52-3.49,5,6.65,7.87-7.08.93-1.47,3.92,4.81,7.66-6.29-3.74-12.23-6.74-5.12-7.73-10.37-2.81-15.5-4.17-7.27-8-10.47,1.35-11.26.2-3.07-4.73-7.74,4.29-3.67,2.59,7.74,2.1-10.5.75-17.59,2.62-13.64-5.09-7.68,6.42-8.5,5.61-2.3-2.28-7.29,7.48-10,8.78-11.21-1.31.44,10.15,2,10,8.54,1.8-6.08,8.6-6.23,10.89-.74,2.85-2.5,9.47,2.49,8.34,13.82,6.77-11.34,1.57-16.56,2.8-14.52-6.89-5.24,8.22-5.19,5.74.58-3.14-6.3,8.39-8.36,8.29-10.16-2,2.25,10.06,5.09,8.71,11.69.53-5.67,8.43-4.88,9.35,1.39,1.78-2.23,8.6,4.76,6.1,15,4.21-11.4,1.53-16.08,3.68-10.68-2.87-6.72,6.7-6.5,7.61,2.78,3.38-7.67,5.84-5.38,6.83,5.91,6.52-7.89,3.36-.73,5.22,8.24,8.75-9-3.53-16.42-5.35-8.56-8.82-11.38.43-13.71-.5-6.08-6.47-9.3,4.41-9.67,3.67-3.22-3.31-5.2,6.9-.73,4.81,10.75,3.2-10.4,2-17.41,4.65-15.78-4.4-5.75,8-6.51,6.89-1-1.85-6.35,8.51-9.56,9.64-12.92-.45,2.75,10.34,5.09,10.86,10.92,2-5.41,9.27-5.62,12.15-1.6,3.24-.88,10.4,3.77,9.44,15.26,7.39C42.23,155.39,37.56,156.4,38.5,146c-4.06,8.93-3.88,6.3,1.59-2.9-5.9,8.82-8.31,8.66-11.12-1.72,3.31,10.36,6.27,10.06,12.77,1.66-5.75,8.8-5.46,10.74.45,2.8-2.43,9.37,3.7,7.71,15,6.6C45,153.2,41.11,155,48.06,148.9c-7.67,6.53-7.63,8.08,3.16,5.29-9.28,4.83-6.39,6.48,6.11,8.49-9.7,1.36-2.86,4.39,6.2,8.54-9.07-4.14-16-7.16-6.32-8.54-12.55-2-15.48-3.55-6.21-8.4-10.81,2.86-11,1.45-3.39-5.16-6.91,6.29-3.26,4.66,9,3.93-11.43,1.15-17.42,2.74-15.25-6.84-5.63,8.14-5.89,6.11-.23-2.81-6.38,8.54-9.55,8.7-13.35-1.68,3.23,10.43,5.76,10.92,11.43,1.92-5.31,9.37-5.68,12.32-2.22,3-.47,10.78,3.75,10.09,15.37,7.91-11.62,2.18-16,2.93-15.83-8-3.28,9.38-3,6.3,2.08-3.23-5.47,9.14-8.48,8.36-12.5-2,4.35,10.17,7.78,10.05,13.58,1.06-5.18,9.29-4.89,11.39-.56,2.53-.67,10.15,5.1,8.28,16.26,6.23-12.07,1.6-16,3.41-11.53-4.69-5.71,8.09-5.65,9.22,3.92,4.25-8.39,6.41-7.48,8.29,4.68,7.18-9.28,4-1.67,6,9.09,9.91C50.8,164,42.86,162,52,157.84c-12.16,1.32-13.06-.56-4.81-7.15-9.48,5.2-9.67,4.16-4.57-4.31-3.95,8.5-.34,6.86,11.69,4.89-11.17,2.42-16.79,4.28-17.14-6.31-3.45,9.3-3.74,7,1-2.6-5.32,9.35-9.47,9.08-14.86-.82,4.87,10.06,8.47,11.25,13.14,1.61-4.35,10-4.83,13.21-3.35,3.11,1.71,11.58,5.58,11.19,16.9,8-11.32,3.18-15.22,3.59-17-8-1.45,10.12-1,6.86,3.31-3.12C31.72,152.8,28,151.57,23,141.55c5.47,9.86,9.67,10.2,14.86.76-4.62,9.7-4.37,12-1.24,2.6.66,10.7,6.15,8.9,17.29,6.31-12,2.14-15.62,3.75-12.29-5.11-4.62,8.77-4.45,9.8,4.71,4.17-8,6.91-7.57,9.05,4.29,6.94-8.92,4.83-1,6.55,10.19,10.43C49.58,163.78,42,162,51.11,157.41c-11.9,1.86-12.43-.18-4.18-6.84-9.32,5.37-9.43,4.45-4-3.84-4.08,8.46-.31,6.94,11.86,5.36-11.31,2.06-16.77,3.72-16.09-6.55-4.17,9-4.35,6.82.89-2.46-5.8,9-9.14,9.12-13.39-1.16,4,10.49,7,11.54,12.59,2.53-5.23,9.44-5.75,12.84-2.09,3.5-.78,11,3.23,10.64,15.2,8.91-12,1.73-15.77,2-14.34-8.66-4,9.16-3.45,6.22,2.29-2.84-6.06,8.72-8.24,8.48-10.75-2.21,3.06,10.8,5.73,11.06,12.66,3-6.31,8.55-6.57,11.07,0,3.41-3.82,9.31,1.3,8.72,13.48,8.58-12.82-.2-16,1-7.39-4.21-9.11,5.59-9.44,7.65,2.47,5.87-10.52,4-7.35,6.31,5.74,9.64-11.13-.07-5.85,3.28,4.1,7.85-10-4.46-14.5-7.47-3.41-6.84C44,166.92,41,164.75,52.24,162.31c-12.83-.52-10.53-3.75,4.1-.8-13-1.73-17.77-2-11.82-10-8.06,6.39-7.73,4.87.36-2-8.17,6.89-9,9-1.21,2.36-5.92,8.32-2.29,9.37,10.93,10.95-13.22-1.56-16.59-2.57-10-10.32-8.2,6.25-7.53,4.68,1.24-1.54-8.59,6.37-9,8,.32,2.76-7.4,7-2.77,7.81,10.2,10.1-14.31-3.07-16.65.29-3.35,2.21-12,1.15-9,3.72,3.58,8-11.26-1.39-7.13,1.85,2.64,6.53-9.77-4.73-14.48-8.24-3.11-7.19-12.94-4.22-16.2-6.87-4.42-9.06-13.26-1.06-10.89-4.92,3.77-2.2-13.15-1.71-18.27-2-14.07-11.41-6.78,7.55-6.28,4.92.53-3.24-7.07,8-7.84,10.12-3.24,1.35-2.5,10.32.58,11.14,13.64,11.07-12.48.7-16.29.58-13.22-9.61-5.5,8.51-4.74,5.2,1.41-3.61-6.57,8.31-8.84,7.54-11.64-3.34,2.83,10.72,5.38,10.61,11.84,2.14-6,8.81-6.21,11.19-1,2.69-2.39,10,2.35,9.14,14.29,8-12.67.66-15.92,1.69-10-5.9-6.86,7.5-7,8.87,3.36,4.59-9.43,5.75-8.77,7.94,4.22,7.66-10.73,3-4.2,5.41,7.32,9.53-11.52-4.11-18.46-6.48-7.84-9.79-13,.56-13.55-1.73-4.33-7.79-10.24,4.59-10.07,3.11-4-5-5.17,8.11-2,7,10.5,5.79-11.81,1.66-16.61,2.67-15.72-8-4.05,9.15-3.9,6.45,1.34-2.91-5.73,9-9.17,8.56-13.77-1.88C29.49,153.06,32.58,154.18,38,145c-5.07,9.55-5.74,13.05-2.68,3.34-.28,11.33,3.28,11.33,15.3,9.28-12,2.05-15.5,2-15-9.18-3.21,9.65-2.51,6.35,2.78-3.06-5.59,9.06-8.33,8.28-12.09-2.39,4.18,10.7,7.3,11.3,13.52,2.67-5.7,9.06-6,12-.93,3.28-2.25,10.28,2.43,9.65,14.6,8.78-12.81.43-15.78,1.53-8.58-5.25-7.81,7-8.22,8.93,3.15,5.75-10.33,5-8.85,7.25,4.83,8.85-11.61,1.35-5.47,4.35,5.68,8.73-11.15-4.39-17.75-7.4-6.18-9-13.77-1.36-15.16-3.63-5-8.92-11.24,3.55-10.93,1.64-3.85-6-6.52,7.43-3.83,6.44,8.9,5.53-12.11,1.35-16.67,2-15.79-8.94-4,9.36-3.64,6.18,1.39-3.34-5.53,9.14-9.53,8-15-2.38,4.89,10.33,8.38,11.6,12.94,1.91-4.33,10-5.16,13.28-4.15,2.84,1.83,12,4.9,12.43,16.43,9C36.7,160,33.45,159.5,31.1,147.39c-.74,10.5,0,6.8,3.82-3.41-4.14,9.89-8.56,7.9-14.33-1.94,6,9.56,10.78,10.18,15.22.32-4,10-4,12.42-2.54,2.37,2.35,11.23,7.26,9.76,18.16,6.17-11.67,3.16-15.35,4.17-15.62-6.31-1.8,9.94-1.26,10.27,5.81,2.39-6.4,8.58-6.86,12,1.52,5.56-5.36,8.73,1.72,9.1,14.47,12.06-12.25-2.27-18-2.84-9.57-8.68-10.73,3.92-10.84,2.18-2.76-4.76-9.12,6-11.6,5.49-13.55-5.87.19,10.5,1.54,8.89,7.06-.32-5.51,9.14-6.15,10.12-5.08-.09,1.47,11,5.2,10,15.67,5.48-10.49,4.49-15.35,5.69-19.59-5.84.14,10.44.18,8.1,3.16-2.37-3.37,10.33-9.6,9.06-16.64.35,6.38,9,12,11.43,14.41.83-2.23,10.79-3.52,13.49-6.14,2.74,5.93,12.17,9.29,14,19.17,8.11-9.88,5.93-13.28,4.06-19.29-8.11,2.64,10.74,3.89,8,6-2.83-2.3,10.61-8.15,8-14.62-.83,7,8.5,13.36,9.47,16.49-1-2.76,10.54-2.84,12.45-3.55,2,5,11.25,10.13,9.8,20.08,4.57-9.93,5.24-14.23,6.41-17.47-4.64.08,10.28.73,8.93,5.16-.91-4.56,9.8-7,10.42-10.31.11,4.78,10.84,8.24,11.91,15.3,3.94-6.23,8.63-6.4,11.26,1,4.07-4.46,9,1.37,8.46,13.65,9.13-12.28-.67-18.17-.1-13.79-9.14-7.33,7.25-7.18,4.63-1-4-7,8-10.62,6.91-15.65-3.92,3.45,10.31,6,9.79,10.32-.1-4.27,9.92-5.08,11.23-5.65.87,3.69,11.12,7.92,10.16,17.69,4.64-9.78,5.52-14.93,6.77-20.46-4.5,1.18,10.46,1.34,8.63,3.75-2-2.76,10.54-9.55,9.39-16.78,1.16,6.53,8.65,12.71,11.36,14.42.58-1.57,10.94-3.23,13.23-6.82,2.63,6.94,12,10.61,14.6,19.8,7.83-9.19,6.76-12.88,4.14-19.85-7.82,3.6,10.6,5.23,8.3,6.76-2.65-1.67,10.79-7.94,8-14.52-.56,7.23,8.17,14,9.25,16.69-1.33-2.31,10.66-2.55,12.36-4,1.92,5.8,11.16,11,9.92,20.6,4.14-9.57,5.78-14,6.73-18.24-4.36,1,10.36,1.79,9,5.71-1.12-4.05,10.05-7.07,10.27-11.29.21,5.66,10.48,9.73,11.8,16.08,3.23-5.58,9.12-5.68,12,.39,3.88-2.9,9.85,2.8,9,15,9-12.2,0-17.93.88-15.06-9-6,8.15-6,5.27-.41-3.87-6.32,8.59-10.46,7.23-16.22-3.23,4.27,10,7.32,9.79,11.29-.3-3.84,10.14-4.73,11.42-5.89,1.06,4.47,11,8.93,10.1,18.36,4.14-9.44,5.95-14.76,7.2-20.81-3.89,1.6,10.42,1.85,8.79,4-1.91-2.48,10.63-9.51,9.5-16.79,1.49,6.56,8.42,13,11,14.37.14-1.27,11-3.12,12.84-7.12,2.46,7.45,11.58,11.72,14.12,20.32,6.86-8.6,7.26-12.89,4.7-20.37-6.87,4,10.36,5.82,8.37,7.05-2.61-1.37,10.83-7.86,8.14-14.38-.23,7.23,7.76,14.19,8.21,16.67-2.46-2.13,10.68-2.38,11.66-4.13,1.45,6.52,10.35,12.46,8.16,21.15,1.47-8.68,6.69-14,8.53-19.64-1.9,1.57,10.09,2.23,8.73,5.39-1.69-3.4,10.35-7.74,10.17-13.16,1.15,6.44,9,11.8,9.59,16.49-.18-4,10-3.32,12.11-.74,2.49,2,10.6,8.31,7.89,18.76,4.56-10.45,3.33-16.8,6.05-18.81-4.56-2.57,9.63-3.27,7.53.71-2.48-4.66,9.78-10.09,9.22-16.6.21,5.44,9,9.81,9.18,13.12-1.2-3.09,10.45-3.83,11.75-5.57,1.67,5.76,10.39,11.13,8.61,19.71,1.78-8.59,6.83-14.58,9-21.32-1.32,1.92,10.19,2.21,9.27,4.19-1.44-2.32,10.7-9.46,10.21-16.75,2.58,6.51,8.24,13.11,10.85,14.23,0-1,11-3.06,12.67-7.4,2.49,7.84,11.29,12.53,14,20.65,6.32-8.12,7.67-12.84,5-20.69-6.29,4.33,10.18,6.38,8.57,7.34-2.44-1.08,10.89-7.77,8.29-14.35.1,7.28,7.66,14.48,8.39,16.64-2.33-1.84,10.74-2.28,11.78-4.44,1.55,6.85,10.47,12.68,8.8,21.33,1.95-8.65,6.85-13.87,8.19-19.76-2.36,2,10.15,2.9,8.88,5.87-1.61-3.17,10.42-7.64,10.13-13.21,1.09,6.63,9.17,12.14,10.29,16.74.5-4,10.07-3.51,12.64-1,2.93,1.7,11,7.45,9,18.48,6.13-11,2.83-16.77,4.82-18.46-6.13-2.51,9.7-3,7.11,1-3-4.61,9.78-10.08,8.65-16.69-.52,5.56,9,10,9.25,13.23-1.17-3,10.48-3.86,11.71-5.79,1.58,5.85,10.5,11.12,9,19.75,2.18-8.63,6.84-14.51,8.64-21.32-1.78,2.09,10.21,2.48,9.16,4.37-1.57-2.21,10.71-9.37,10-16.61,2.35,6.55,8.16,13.19,10.51,14.35-.35-1,11-3,12.48-7.27,2.36C28,155.76,33,157.91,41,150.22c-8,7.69-13,5.52-20.87-5.55,4.24,10.1,6.21,8.5,7.22-2.48-1.15,10.86-7.83,8.41-14.34.29,7.19,7.47,14.25,7.61,16.5-3.11-1.92,10.7-2.35,11.3-4.48,1.25,7.06,9.8,13.33,7.17,21.41-.16-8.84,7.24-15,9.19-22-.47,2.58,9.65,3.81,8.47,6.61-2.1-2.63,10.54-1.92,11.61-2.09,1.56,6.25,9.83,13.68,5.57,23.72.07-10,5.5-17.47,9.75-23.71-.08.17,10.05-.54,9,2.09-1.58-2.81,10.57-4,11.71-6.59,2,7,9.63,13.18,7.6,22,.33-8,7.35-14.35,10-21.42.29,2.11,10,2.52,9.44,4.45-1.26C27.25,150,20.2,149.86,13,142.41c6.49,8.07,13.15,10.34,14.31-.5-1,11-3,12.43-7.23,2.41,7.91,10.89,13.18,12.75,21,5-8.19,7.62-14,4.85-22.33-5.62,4.45,9.44,6.6,7.49,7.6-3.4-.92,10.81-1.59,11-4.37,1.1,8.26,9.52,15.25,7.32,24.14.12-8.16,7.3-13.85,9.24-20.28-.81,2.21,10,3,8.85,5.73-1.71-2.91,10.51-7.95,10.22-13.82,1.69,6.69,8.48,12.6,8.93,16.53-1.24-3.38,10.29-2.78,12.06-1.89,2,4,10.58,10.18,7.56,19.85,2.73C42.58,149,36.38,152,32.43,141.44c-.89,10-1.49,8.24,1.9-2.05-3.94,10.16-9.81,9.72-16.47,1.22,5.87,8.53,10.88,8.77,13.85-1.73-2.73,10.55-3.51,11.67-5.63,1.69,6.37,10.05,12.07,8,20.25.73-8.92,7.16-15.9,9.46-24.09-.06,2.7,9.91,3.33,9.67,4.34-1.14-1.08,10.88-3.14,12.77-7.47,3.31,8.3,10.41,14.17,12.76,22.41,5.21-8.24,7.55-14.09,5.15-22.38-5.26,4.32,9.42,6.33,7.35,7.46-3.54-1.05,10.79-1.72,10.65-4.32.78,8.23,9.13,15.41,6.09,24.09-1.36-8.68,7.44-15,9.78-22.11.33,2.55,9.58,3.69,8.3,6.43-2.29-2.59,10.51-2.05,10.95-2.45.95,6.65,9.14,14.22,4.05,23.58-2.4-9.36,6.45-16.81,11.44-23.29,2.28.38,9.95-.08,9.41,2.71-1.06-2.91,10.52-3.68,11.77-5.7,2.08,6.82,9.44,13.26,6.45,22.19-.73-8.93,7.18-16,10.69-23.68,1.47,2.09,9.9,2.54,9.73,4.25-1-1.78,10.8-3,12.7-6.38,3.08,7.76,10.22,13.74,10.43,22.63,3.34-8.89,7.09-14.83,6.83-22.56-3.4,3.34,9.59,4.59,7.54,6.44-3.26-1.78,10.69-2.18,10.57-4.1.65,7.67,9,14.83,4.86,23.64-2.53-7.86,7.36-13.91,10.92-19.84,1.55,1.2,9.79,1.44,8.64,4.56-1.72-3.47,10.31-8.25,10.41-13.78,2.06,6.13,7.79,11.17,5.67,15.31-4.47-3.49,9.87-2.8,9.35-2.07-.17,5.28,7.6,12.13,1.29,18.84-5.69-6.71,7-13.53,13.26-18.76,5.66-.74,9.5-1.41,10,2.11.15-4.15,10.13-9.08,12.24-15.11,4.39,5.52,8.37,10.25,8.16,13.85-2.09-3.22,10.3-3.31,11.42-4.21,1.62,5.72,9.34,11.81,5.6,19.71-1.64-8.9,7.28-16,11.55-23.41,2.55,1.67,9.92,2,9.88,4-.76-2.14,10.74-3.08,12.67-5.92,3,7.44,10.1,13.52,9.33,22.64,2.42-9.12,6.91-15.24,7.7-22.75-2.38,2.84,9.66,3.74,7.74,5.8-3-2,10.65-2.47,10.66-4.34.78,7.5,8.93,14.57,4.79,23.35-2.66-8.77,7.44-15.34,11-22.18,1.91,1.8,9.56,2.27,8,5.24-2.56-2.89,10.35-2.83,9.51-3.32-.3,6.82,7.5,14.21.3,22.14-7.42-6.63,7.26-13.32,13.63-18.9,6.12-.29,9.54-.75,10.16,2.64.21-4,10.23-9,12.43-15.15,4.68,5.72,8.41,10.8,8.82,14.2-1.5-3.05,10.44-3.22,12-4.36,2,5.78,9.92,11.71,7,20,.1-9.22,6.78-15.71,9.55-22.58-.13,1.83,9.7,2.23,7.93,5-2.66-2.7,10.47-2.81,10.24-3.8.37,6.91,8.42,14.14,2.81,22.72-4.65-7.41,7.24-13.55,11.91-18.72,3.3.12,9.49-.1,8.52,3.52-1.5-4.08,10-8.14,10.44-13,2.06,5.41,7.41,9.29,3.55,13.83-6.49-3.8,9.25-3.21,6.94-1.76-2.14,4.78,4.72,11-4.26,15.48-10.82-4.49,6.56-10.62,15.45-15.28,10.72-1.45,9-2,11.31,1.84,2.1-4.56,10-8.18,13.76-13.3,6.25,4.79,8.35,8.73,7.59,13.05-2.24-3.77,9.85-3.27,10.55-2.73,1.16,4.75,8.31,11.08,3.19,18.33-3.76-8.53,7.24-15.72,13.23-22,4.94.38,9.73.26,9.58,3.59-.68-3.33,10.3-3.18,11.05-3.64,1.34,6.19,8.7,13.27,3.42,22.12-3.6-7.61,6.85-14.12,11.74-19.1,3-.4,9.63-.89,9.09,2.68-.91-4.11,10-8.7,11.07-14.23,2.75,5.56,8.15,10.08,6.46,14.23-3.6-3.59,9.89-3.07,9.81-2.57.29,5.11,8,11.72,2.31,18.74-4.72-7,7-13.24,12.28-17.88,4.22-.59,9.25-1.08,8.55,2.77-1.24-4.4,9.73-8,10.42-12.41,2.08,4.9,7.25,8.22,2.83,12.86-7-3.87,8.79-3.31,5.82-1.59-2.93,2.16,1.74,4.68.18,7.11-2.55s4.82-8.27,6.58-9.56c-1.76,1.28-4.13,6.8-6.53,9.51s-4.89,4.24-7,2.5c-1.71,8.7-2.24,11.61,1.64,2.88-4.63,9.8-7.77,14.12-12.43,6.82,4.34,8.27,7.81,7.32,12.36-2.33-3.93,9.65-3.27,10-2.22.87,4.38,7.69,10.71,2,17.46-4.83-6.74,6.85-13.31,12.84-17.95,5.18-1,9.33-1.64,9.52,2.18-.16-4.44,9.86-8.35,11.6-13.3,3.3,5.11,8.18,9.12,6.07,13.68-3.77-3.85,9.56-3,9-1.58-.28,4.47,7.27,11.22.88,17.68-5.83-6.46,6.71-13.06,13-17.31,5.7-1.47,9.2-2.23,9.72,1.73.25-4.62,9.74-8.15,11.77-12.72,3.41,4.78,8.34,8.57,6.31,13.36-3.33-4,9.38-3,8.85-.86-.3,3.86,7.36,10.79,1.15,17.36-5.19-6.57,6.3-12.86,11.86-15.92,4.47-2.22,8.77-3.06,8.53,1.18-.63-4.92,9.13-7.3,9.95-10.11,1.5,3.55,7.34,6.41,2.78,11.32-6.28-3.73,7.61-2.58,4.39.38-3.71,1.49,1.56,3.73.1,6-2.34s4.41-7.76,6.17-8.25c-1.75.51-3.85,5.8-6.06,8.22s-4.35,3.84-5.74,2.28c-2.9,8-4,11.27-.2,3.78-4.86,9-7.39,13.44-10.32,6,2.57,8.5,5,7.69,10.13-1.13-4.28,8.9-3.2,9.1,0,.6,2.21,7.35,8.82,2.06,15.59-3.64-6.75,5.76-13.73,11.51-16.24,4.17-3.19,8.8-4.33,9.37,0,.43-5.19,9.19-8.07,11.17-11.43,2.45C32,144,35,141.91,40.31,132.78c-4.29,8.85-3,8.14.51-.57,2.32,7.21,9.47,1.4,16.17-4.19-6.7,5.59-13.61,11.22-15.62,4.06-3.57,8.61-4.73,9.28-.32.58-5.32,9-7.8,11-10.38,2.21,2.92,8.71,5.78,6.54,11.33-2.27-4.37,8.51-2.93,7.63,1.4-.69,1.52,6.91,8.82,1.33,15.52-3.81-6.67,5-12.69,9.37-13.16,2.68-4.29,7.46-5.25,7.18-.91-.82-5.15,7.65-6.24,7.74-5.84-.48.76,6.73,3.51,2.09,7.91-5.42-2.64,5.33-.83,1.53,2.66-4.85.6.93,2.1-.57,3.82-2.34,1.65-2.16,3.07-6.83,4.8-6.38-2.25.19-4.29,6-6.52,8.64s-4.21,4.34-5,3c-3.7,7.78-5.06,11.53-1,5.06-4.39,8-3.94,9.54.16,2.44.6,6.6,7.12,1.72,15.06-3.26-7.91,5.18-15.58,11.41-16.8,4.73-4.24,8.09-5.14,8.28-.18,0-4.89,8-3.79,6.55.4-1.69,1.54,5.78,9.36-1.68,16.27-7.11-6.91,5.41-14.2,12.43-15.26,6.76-4.14,7.93-5,9.06-.12,1.31-4.71,7.83-3.53,6.9,1.17-.8,1,5.8,8.73-.81,15.89-5.73-7.12,4.48-11.57,7.61-10.67,2-3.67,5.07-3.14,2.64.14-3.8-1.82,3.33.92-2.11,3.79-7.09,1-1.25,3-12.66,6.08-9.93-3.06-3-4.33,7.1-5,8.79-2.41,3.54-4.66,9.1-3.14,6.51-2.51,5.54-2.77,7.54.82,3.24-.82,4.7,3.41,1.68,9.59-2.09-6.11,4.36-12.44,10-12.18,5.51-4.67,6.4-5.73,7.4-1.67,1-4,6.16-2.71,4.52,1.87-2.05-.09,4,6.28-2.38,11.71-6.84-5.41,4.53-11.78,11.09-11.53,7.19-4.59,6.72-5.91,8.83-1.61,2.86-4.2,6.66-3.13,6.33,2.2.29-.78,5.12,5.83.61,12.9-3.28-7,3.61-11.38,6.26-9.59,1.28-4.3,4.53-3.91,3-.48-2.84-2.14,3.32.77-1.2,4-6,.41.1,3.77-6.78,6-8.81-2.24,2-5.36,8.7-5.64,8.69-3,4.67-5.81,9.14-3.6,6.08-3.24,5.68-3.55,7.33.94,3.17-1.88,4.93,2.48,2.73,9.46-.43-6.95,3.66-12.89,7.57-11.17,3-5.41,5.52-6.39,6.2-1.9.43-4.13,5.5-2.37,3.93,3.19-1.58-1.3,4,5-.56,11-4.07-6,3.51-11.27,7.51-9.3,3.86-5,5.09-6,6.22-1.72,1.51-3.66,5-1.81,3.93,3.85-.45-1.78,3.58,3.85.36,9.59-2.35-8.36,2.35-7.39.36-3.22-4.55.73-1.22,7-7.9,7.52-12.61-.4,4.78-4.91,10.63-5.2,12.26-3,4.29-3.46,6.2,3.1,4.64-6.94,2.91-10.3,4.79-6.66,1.31-2.5,2.08,3.07-2.2,7.84-5.78-4.71,3.51-8.29,6.84-5.41,5.1-2.3,2.64,1.71.55,6.55-1.88-3.46.41-1.77-2.26.23-5.66,1.44-2.9,4.2-7.42,4.66-12.08A90.88,90.88,0,0,1,78,119.14c-.51,2.61-1,4.34,0,4.45-2.08,1.59.11-2,1.49-9.63-1.08,7.29-.3,9.57,1.13,7.9A16.64,16.64,0,0,0,83,116.59a70.24,70.24,0,0,0,2.17-10.3c-2,18.78,3,5.11,5.81-4.67-.68,13.81,1.59,7.21,6.13,1.57-2.23,14.13,1.93,2.89,6.43-3.42-1.21,8.59,1.11,7.26,6.71,1.94-2,5.78,3.2-.19,7-3.27.64,1.88,4.52-.64,7.2-1.37,2.15.64,4.91-.65,7.42-1.29s5-1,7.6.6c2.57,2.62,5.16-1.56,7.78.34,2.62-1.36,5.26,1.75,7.93-4.14,1.33-7.9,2.67-4,4-7,1.34,6,2.69-.19,4,4.31,1.36-3.12,4.38-7.74,4.07-4.27,2.9.8,3.58,4.32,4.1,4.9,2.14-7.8,13.71-21.62,4.11-8.48,11.23-11.55,20.23-22.63,4.13-6.28,16.81-16.38,16.94-15.9,4.15,3.75,13.53-19.07,12.55-18.7,4.16,4.6,9.84-19.74,10.6-18.59,8.36,3.18,4.37-22,6.09-25.47,8.38-2.84-.91-24.51,1-24.81,8.37-.75-6.47-22.78-.9-16.41,11.4-.76-9-16.53-9.43-17.36-3,1.32-6.29-18.63,7.47-12.25,16.3-6.8-5.34-7.13-13.61-10.59-9.79,5.24-3.38-16,14.53-12.92,18.55-11.93-1.36-3.59-12-4.66-11.46,8.92-2.79-11.57,7.4-12,12.33-10.92-1.43-4.25-4.66-5.79-1.62-.19-7.91-3-26.37-8.78-16,9-10.46-17.79,5.74-15.13,16.06-11.46-5.15-8.12,1.13-7.33,5.66-3.5-3.44-2.05.17,4.59-.58,12.06C252,63.57,247.42,54.83,253,59c-5.12-3.32,0,6.53-.77,17.66.77-11.13-3.53-20.44,1.55-17.81-4.15-3.65,1.36,4.33,3.29,15.23-1.94-10.9-7.29-17.4-4.83-13-6.36-1.83-13.23,4.56-14.28,17.32,1-12.76,6.62-20.37,13.49-17.73-4.19-5.43,1.07,1.79.73,13,.36-11.23-5.94-21.85,2-17.82-5.44-5.15,4.45,3.78,10.46,13.3-6-9.52-14.09-16.94-9.6-12.75-5.8-2.6.55,6.94,2.84,17.76-2.29-10.82-6.42-18.29-1.29-17.37-1.32-3.1,7.34,1.79,17.74,7.69-10.35-5.93-17.21-9.79-15.29-8.87-1.56-1.06,5.7,2.66,16.59,7.91-10.94-5.22-19.11-9.33-18.36-6.64-4.29-.38-.06,6.37,3.74,16.74-3.8-10.37-9.45-18.47-4.78-17.06-2.81-3.32,5.1,2.44,13.47,10.35-8.37-7.91-17.3-14.65-13.75-11.08-5.63-2.32.62,6,4.21,16.52-3.6-10.49-9-16.47-6.55-12.28-5.21-1.06-3.27,8.8-7.49,19.52,4.22-10.72,1.54-21.49,7.38-20.28-3.14-4.95,3,1,7,11.44-4-10.44-12.51-20.57-4.75-17-5.7-5.32,5.86,2.19,15.18,9.33-9.31-7.15-19.8-13.78-14.71-9-6.57-2.76,1.89,6.61,7.19,16.46-3.53-6.57-8.9-13.15-6.44-13.95-3.56-4.49-1.21-5.12,3.82-4.11,1.51-1,8.83,1.21,17,3.24-8.13-2.11-15.29-4.56-16.22-4.48-4.33-1.78-4.44-2.16.22-.75.85-.67,8.39,1.37,16.73,3C270.11,51.87,262,49.65,261.05,51c-5.54-1.23-7.71-.63-3.38,3.82-2.5.32,3.93,6.71,8.52,12.74-4.59-6-11.21-12.5-8.73-12.6-4.58-4.41-2.83-4.82,2.68-2.92.13-1.1,8.3,2.15,16.15,4.84-11.76-4-23.13-9-18.33-4.86-5.9-2.44,4,4.73,13.35,11.8-6.26-4.69-12.57-8.6-12.92-8-4.57-1.82-7.07-1.12-4.2,4.18-3.7.89-.23,8.81-.07,16.19-.16-7.38-4-15.76,0-16.58-3.27-5.71-1.27-7.06,4.1-5-.56-1.43,6.69,2.76,13.09,7.34-6.38-4.61-15.2-10.77-12.54-10.08-6.07-4.5-6.23-6,1.41-3.07-2.57-2.87,8.38,1.19,16.54,3.25-8.17-2.08-20.09-6.89-16.81-3.71-8.53-3.65-10.29-3.3-2.34,2.72-5.55-2.43,5.12,5.82,10.69,11.18-5.57-5.36-16.53-14.23-10.41-12-8.19-6.65-7-8.56,3.14-5.29-4.61-4.71,9.38-1,18-.79-8.53-.47-21.84-4.56-16.87-1.17-9.42-3.9-9.31-4.16.32-.69-4.7-3.7,8.68-.21,17.18-.19-8.62.16-22.92-3.37-18.13,1.37-10.59-3.37-12.11-2.06-2.81,4.54-6.79-3,5.72,5.43,12.33,9.83-6.61-4.4-18.7-12.35-12.39-9.3-8.93-6.13-6.62-6.42,2.71-3.24-3.58-3.77,9.48-.13,18.13.25-8.58-.4-19.78-3.09-17.46,0-7.81-2.41-7.35-1-.78,2.41-2.06-1.32,7.88,2.81,16.08,4.82-8.27-1.88-18-5-17.11-2.54-6.84-1.92-9-.65-3.95,5-4.17-.13,2.62,8,5.8,14.72-3.18-6.75-10.06-15-5.81-14.8-5.13-5.79-3.14-7.25,3.94-5.24-1.14-2.67,8.84.52,17.13,2.34-8.21-2-18.48-6.3-16-4.86-6.84-3.69-7.28-5.21.95-2.8-2.74-3.42,9-.83,17.54-.73-8.64-.12-22.27-3.87-18.2.16-10-3.46-12.61-3.55-2.56,2.79-7.32-3.84,6.22,4.13,13.36,7.87-7.14-3.74-21.08-12.35-13.18-8.64-10.45-6.88-8.72-8.12,2.79-4.68-5.9-5.14,9.56-1.84,18-2.52-12.48.58-29.35-4.07-18.43,1-10.72-5,6.51-.22,19-.9-8.41.78-21.85-1.4-17.84,3.12-9.76-2.31-10.18-.15-2.37,5.17-4.64-1.74,6.54,4.75,14.1,7.94-7.56-3.19-18.13-8.93-14.17-7.15-7.24-4.61-5.59-5.35,2.36-3.37-1.76-3.15,9.56-1,18.18-1.2-8.52.2-17.69-.75-17.26,1.73-5.94-.85-4.73,1.15-.41,3.18A122.28,122.28,0,0,0,280,51.93c-8.62-.8-14.67-.8-17.56.62-3.83.87-4.18,3.38-2.58,6.82,1.37,3.32,4.83,7.72,10,13.22-5.17-5.5-8.63-9.9-10-13.24-1.61-3.45-1.26-6,2.58-6.85,2.89-1.44,8.95-1.46,17.57-.68a115.09,115.09,0,0,1-16.78-3.46c-4.29-2-5.4-4,.5-3.26-.15-2.46,8.77-1.64,17.27-1.93-8.59.29-19.79-1.72-18.14,1.37-7.83-1.86-9.41-1.12-2.27,3.3-3.73-1.71,6.77,3.72,14.49,6.64-7.71-3-18.16-9.11-13.88-8-7.14-5.15-6-7.38,3-6.14-2.7-4.18,9.5-3.11,17.45-4.16-7.93,1-19.92,0-17.31,4.08-8.74-1.19-9.55,1.08-2.66,5.83-3.72-1,6.54,4.53,14.54,7-8-2.43-18.27-7.38-15-5.95-6.86-4.17-5.7-5.35,2.17-3.76-1.78-3.29,9.49-1.69,17.95-2.29-8.35.53-17.58-.27-17,2.27-6.12-.89-5,.85-.34,2.76.65-.24,8.35,1.61,16.95,2-8.7,0-15,.6-17.73,2.55-3.9,1.28-3.87,4.16-2,7.4s6,7.11,12.39,11.61c-6.37-4.5-10.57-8.41-12.39-11.62s-1.93-6.13,2-7.42c2.72-2,9-2.59,17.74-2.58-8.61-.4-16.27-2.24-16.91-2-4.65-1.91-5.66-3.63.4-2.82-.53-2.52,8.63-1.79,17-2.37-8.43.64-19.29-.82-17.89,2.38-7.73-1.49-8.85-.31-2.11,3.71a124.08,124.08,0,0,0,15.16,5.61c-8.09-2.3-18.05-7.54-14.61-6.72-6.6-4.56-5.6-6.77,2.74-5.89-2.14-3.9,9.39-3.21,17.23-4.3-7.82,1.1-18.72.77-17,4.61-7.78-.5-7.82,2.32-2.39,6.29-1.77.08,6.79,4.48,15,6.55-8.22-2-16.77-5.69-15.43-5.3-5.29-3.19-4.6-4.67,2-3.91-.19-2.73,9.4-2,17.8-2.66-8.29.63-16.06.65-16.7,2.7-4.77,0-3.57,1.84-.06,3.11,2.81.91,8.47,1.6,17,1.75-8.65.33-14.43,1.68-17.5,3.76s-3.45,4.87-1.26,8.07,6.92,6.81,14,10.5c-7.12-3.69-11.86-7.32-14-10.56s-1.86-6.11,1.25-8.22,8.86-3.54,17.5-3.9c-8.58-.15-14.64-1.12-16.91-1.95-3.54-1.45-4.83-3.59.22-3.63.52-2.32,8.39-2.49,16.54-3.32-8.25.8-18.72-.32-17.62,2.57-7.31-1.26-8.83-.57-2,3-3.05-1.67,7.33,2.26,15.78,3.57-8.45-1.31-19-5.51-15.69-4-7-3.84-5.91-5.1,2-3.88-1.89-3.4,9.28-2.41,17.35-3.46-11.94,1.32-23.88.24-18.08,3.9-5.84-1.85,6.07,1.64,18.54,1.07-8.37,1-14.75,2.52-17.26,5.07-3.73,1.91-3.54,5-1.2,7.81s7.46,5.61,15.43,8.08c-8-2.55-12.88-5.82-15-9.18s-2.58-7.49,1.64-9.77c2-3.41,8.78-5.33,16.66-6.57-7.91.79-17.58.24-17.22,3-6.85-.66-8.42.39-2.25,3.79-2.41-1.05,7.09,2.63,15.58,3.83-8.51-1.12-18.17-4.63-15.87-3.33-6.31-3.26-5-4.12,1.94-3.18-.72-2.77,9.31-2,17.47-2.88-8,.89-15.28,1.37-16.12,3.48-4.41.35-3,2.41.17,3.54,2.82.94,8.43,1.51,16.91,1.34-8.49.82-14.17,2.72-17.08,5.21s-3.08,5.54-.55,8.66,7.75,6.31,15.6,9c-7.85-2.73-13.07-5.89-15.59-9s-2.36-6.09.56-8.52,8.61-4.29,17.11-5.08c-8.48.18-14.12-.29-17-1.08-3.12-.93-4.13-2.58-.19-3,1.39-1.7,8.16-2.2,16.32-2.95-8.27.85-16.47.93-17.51,3.29-5.49,0-5.67,1.92-1.73,4.31.42.53,7.44,3.1,15.87,4.62-8.41-1.6-15.45-4.81-15.43-5.84-3.93-3.12-4.2-6.14,2.18-6.49-.05-3.36,9.07-3.79,16.75-4.93-7.66,1.14-16.27,1.86-16.54,5.17-5.89.67-5.1,4-1.8,6.78,1.57,1.9,7.26,4.23,15.75,5.58-8.5-1.26-14.24-3-16.06-4.26-3.16-1.95-3.07-3.88,1.59-4.48,1.79-2.08,9.15-2.65,17.35-3.57-8.09.81-14,1.74-15.94,3.18-3.11.88-2.37,2.34.58,3.14s8.58,1.18,16.92.81c-24.88,3.34-24,16.48.46,22.69-24.47-6.21-25.33-19.27-.44-22.59-8.34.38-14,0-16.92-.73s-3.61-2.11-.58-3c2.06-1.34,7.88-2.27,16-3-8.22.91-15.25,1.69-17.34,3.69-4.33.85-4.37,2.88-1.51,4.76,2.32,1.62,7.58,3.21,16.07,4.53-8.47-1.42-13.54-3.51-15.67-5.79-2.79-2.59-3.22-5.79,1.91-6.91,1.15-3,8.93-4,16.6-5.14-7.62,1.14-14.52,2.74-16.17,5.75-4.26,1.77-3.62,5.23-1.18,7.72s7.62,4.58,16.17,5.7c-8.56-1-13.91-2.43-16.33-4s-2.08-3.44,1.23-4.94c3.14-1.6,8.93-3,17.08-4-8,.87-13,2.19-15.25,3.5s-1.66,2.61,1.46,3.44,8.79,1.19,16.79.62c-23.25,4.72-16.34,17.11,5.29,22.19-21.63-5.08-28.51-17.41-5.27-22.13-8,.58-13.65.25-16.74-.55s-3.63-2.06-1.39-3.34,7.25-2.58,15.26-3.45c-8.12,1-13.87,2.49-17,4.16s-3.55,3.5-1.09,5.15,7.84,3.1,16.41,4c-8.57-.92-13.93-2.71-16.41-4.83s-2.52-4.84.95-6.82c2.5-2.44,8.6-4.29,16.47-5.58-11.75,1.12-20.32.27-17.2,1.53-2.78-1.42,6.18-.77,17.69-2-7.65,1.36-13,3.52-15.78,5.83s-3,4.76-.4,6.72,8.06,3.42,16.62,3.73c-8.56-.31-13.94-1.52-16.46-3.12s-2.17-3.61.75-5.5,8.41-3.7,16.16-4.9c-11.44,1.47-15.65,3.4-14.39,4.71s8,2,18.52,1c-19,6-3.13,14.73,10.23,20.23-13.36-5.5-29.2-14.12-10.17-20.09-20.93,2.1-26.47-2.25-3.77-5.21-7.66,1.25-13,3.19-15.74,5.24s-2.95,4.22-.33,5.92,8.05,2.93,16.51,3.13c-8.46-.2-13.92-1.66-16.59-3.69s-2.57-4.6.09-7,7.88-4.7,15.4-6.1c-11.32,1.23-17.5,1.66-16.56,2.14-.56-.19,6-.3,17.2-1.49-22,4.53-21.71,17.72,2.79,18-24.5-.3-24-10.14-1.63-14.07-22.14,3.3-13.92,7.52,5,5.82-15.68,6.3,7.19,11,14.49,17.75-7.3-6.78-29.84-11.24-14.29-17.46-18.65,1.74-24.74-1.79-3.83-5.23-20.71,4.35-16.06,13.47,4.69,14.51-20.75-1-25.39-12.79-5.35-17.71-20.66,2.51-18.09,2.49,1.21.21-17.75,5.17-5.72,13.78,8.71,17.48-14.43-3.7-25.65-8.38-7.28-12.58-18.87,3.84-11.31,7.26,4.63,6.5-11.17,6,9.59,9.47,17.94,14.25-8.37-4.78-29-6.42-17.21-11.12-15.78,1.62-18.32.92-1.47-1.91-14.37,4.42,6.81,5,14.17,11.5-7.34-6.5-26-6-12.78-9.37-14.88,3-7.09,4,4.19,4.57-4.81,3.9,10.53,6.26,19.23,8.83C309.61,67.47,300,66.89,302.15,66c-6.23.43-3.41.79,1.87,1.61,1.07,1.5,9.21,3,17.21,4.86-11.74-2.78-18-4.53-16.29-6.19-.2-.61,1.61-1.25,5-1.85s20.32-9.68,14.19-1.69c-11.59-.67-15.69-1.22-14.5-1.78s31.22-19.32,17.27-1.81c14.11-17.45-11.78,2.12-10.68,4,1.36,1.77,15.74-1.75,13.37,7.11,3-9.18-2-5-4.35-1,5.89-1.94,20.83-14.46,9.46-.75,11.25-19.2,17.6-31.71,4.72-5.11,13.28-26.55,11.79-34,4.31-4.3,7.56-30,10.14-25,3.89,4.82C354,34.57,349.85,26,351,55.82c-1.17-29.88-.4-28.72,5.44,1-5.83-29.72-2.75-24.7,1,5.13-3.79-29.85,1.8-18,.92,9,1-23,2-14.12.78,6.94,1.45-23.4.68-29.77.64-6.17.15-25.17-2.28-32.26.88-5.16-3.14-27-3.94-29.06.22-1.22-4.15-28-10-37.83.07-9.3-10.11-28.49-6.85-23.55.8,5.32-7.63-28.59-1.18-16.63,2,10-3-23.92-.91-10.06,1.25,6.39-1.8-13.59-.05-12.64,1.34,6.65-.52-4-.67-1.52-.71,2.36.06,4.1,6.09,19.83-.07,10.73,6,12.39,5.05,10.91,2.11-2.66,3.13,14.92,15.79,30.76-2.39,16.61,18.25,15,11.78,9,3.65-11.66,8.21,21.12,21.76,29.26-1.23,22.44,23.1,7.17,20.52,6.32,2.34-12,18.18,18.28,23.67,19,.28,17.52,23.41,1.46,19.5,1,.6-16.42,18.9,17.41,24.35,17.63,1.23,17.72C395.37,128.92,392.58,129,371.8,115Z" transform="translate(-12.94 -24.78)"/><path class="cls-1" d="M381,172c2.8-14.76,12.55-39,5.21-15.13,7.42-24.33.17-14.47-5.28,8.24,5.45-23,18.92-36.2,7.07-15,11.87-21.23,2.06-15.72-7.29,8.34,9.33-24.11,18.09-29.23,6.45-7.62,11.59-21.48-2.39-5.2-7.33,16.12,4.86-21.75,12.91-34.7,3.14-11.47,9.52-22.87-3.31,2.71-6.53,17.39,2.58-12.93,10.31-34.82,1.73-13.42,8.14-22.06-.6-8.4-7.17,8,6.16-18.38,16.77-33.48,3.67-13,12.92-20.14-1.23,2-5.33,16.7,3.9-11.84,12.45-29.54,3.38-10.86,8.91-19.1.38-4.54-5.16,8.66,5.22-13.38,11.45-25.89,1.58-8.67,8.85-16.35-3.25,4.79-5.47,15,2.46-10,0,6.09-2.1,2.08.67-5.62,7.81-23,1.22-14.36,6.6-12.51.72-5-3.43,6.66,4-4.95,4.64-7,1.32-1.15,1.55-3.79-2.79,4-3.63,10.05.46,1.91-.73,1.53-1.2,3.6-.34.55,3-13.44-1.21-9.91,1.88-5,6.88-15.16,1.51-10.1,4.85-7.65-.72-1.58-4,7.24,2.84-6.74,2.63-5.4.56-.47.12,1.58-2.64,8.59-3.16,10.18-.71-6-1.78-1.51-2.69,3.1-.45,8-.91,4.2-1.38,4.89s-.93-2-1.4-8.23c-.92-3.11-.51-10.3-2.86-7.43.27-2.91-.1-4.37-.9-3.46-.55.68-1.54,3.74-2,9.46-2-7.85-4,4.55-6.13-2.28-2-5.36-4.25-4-6.43.71-.55-3.2-.17-16.1-1.65-7.82.86-13.86,3.12-23.88-.83-5.06,3.68-17.55-.54,4.62-.84,11.59-.52-1.76-1-2.78-1.69-1.51-.56,10-1.13,11.87-1.7,10.37-2.28.87-4.6,5.26-7,1.26-1.18-3.83-2.37,2.58-3.58-2.56-1.2.49-2.4,7.42-3.62,4.17-2.44-5.66-4.91-2.07-7.42,2.31-2.5.89-5,1.55-7.6.15-2.6,4.41-9.1,3.85-7.78,6.47-6.08,6.39-16.62,3.89-7.93-.24-12.39,1.75-22.23,3.88-8.05-.93-16.56,3.63-23.46,6.95-8.17.52-16.57,7.3-21.2,11.34-8.24,4.29-13.54,7-15.27,9-8.32-1.73-7.33,11.28-8.67,12.66-8.35.18-.68,12.55-2.58,15.47-8.38,3.34,5.34,12.15,3.22,14-8.37,2.4,10.77,11.62,7.11,11.57-8.36.83,13.82,10.91,5.72,7.18-8.31,1,11,5.31.25,3.41-8.25,1.81,4.08,7.35-4.27,5.12-8.16,1.23-1.33,2.74-5.39-4.73-8.05-1.81-2.67,2.12-5.31-4.71-7.93-1.74-2.62-3.06-5.21,2.48-7.78,8.14a30.61,30.61,0,0,0-7.6-3.27c-2.51-1.75-5,1.08-7.42,4.24-2.44.25-4.84,5.82-7.2,2.15-2.36-2.44-4.68,7-7,2.21-2.28.19-4.52,8.27-6.71,7.64-2.19.18-4.34-.58-6.43-.57-2.1-2.77-4.14,1.78-6.13,1.5-2,2.46-3.93-1.61-5.82-4-1.88-2.17-3.7,1.44-5.46,3.82-1.77,1.18-3.47-2.72-5.11-.82-1.64-4.21-3.21-1.81-4.72,5.44-1.51-3.93-3,3.72-4.31-4.87-2.74-5.86-5.19,10-7.33,3.39-2.14-4.86-4-2.16-5.44-1.06-3-8.95-4.56,4.61-4.56.83,0-1.16-.31-2.77-.83-8.44-.51-2.28-1.23-3.3-2.06-7.37-.41-15.79-.85,1.71-1.3-2.88-.45-16.13-.91-.9-1.38-10.41-1.46-.39-5.2-16.19-.69-9-4.72,1.9-4.75-4.21-.69,2.05-4.22-3-10.3-12.39-1.54-11.68-9.47-6.93-7.77-7.94,1.38,1.44-8.1-5.29-13.4-10.64-2.74-9.58-11.64-4.68-11.14-6.95.84-4C47,164.62,44,162.89,55.38,162.49c-11.57.15-9.35,1.62,3.13,6.32C46,164.18,44.14,163,55.83,163.34c-11.35.19-8.35,2.24,3.46,6.81-11.61-2.71-11.69-.19-.53,4.87-10.35-1.33-5.54,4,2.11,9.33-7.66-5.62-13.57-12-2.8-11.36-11.79-4.94-10.91-7.71,1.25-4.85-12.33-4.74-15.8-6.72-4.84-8.2-11.29,1-9,2.39,4,7.17-12.93-4.79-15.47-6.17-4.23-7.38-11,1.59-7.67,3.51,4.84,8.21-12.37-3-13.46-.32-1.41,4.32-11-.6-5.1,5.49,3.07,11-9.17-9.92-11.29-9.7-1.43-2.75-9.45-2.5-6.46,1.74.73,7.07-6.76-1.34-3.92,2.7.54,5.85-4.51-5.1-8.84-11.19-.75-9.64-8.59-5.76-11-8.84-.9-5.58-10.65-6.24-8.41-3.52,1,5.67-9.49-9.21-14.51-13-2.87-7.23-11.8-4.15-7.17,2.83,2.28,8.86-8.43-5.16-14.1-11-2.76-9.84-12.39-5.12-12.4-7.93.36-5.27-12.49-3.42-16-5.25-4.65-7.44-12.55.38-13.24-.74-2.46-4.38-11.83,2.5-10.24,3.59,4.31,7.28C40.67,163.74,37,162.26,44,154.35c-8.75,6.05-7.79,3.4.47-3.57-8.39,6.66-8.7,7.68-1.42.51-5.44,8.48-1.41,8.64,11.72,9.66-13.09-.86-16-.49-6.9-5.63-9.6,5.07-9.67,6.29,2,3.9-10.72,3.94-9,5.79,4.27,7.55-11.52.89-6.55,3.56,4.7,7.84-11.25-4.33-17.95-7.19-6.65-9.35-13.55-.77-14.62-3.08-4.79-8.63-10.9,3.87-10.58,2-3.83-5.75-6.05,7.62-3.1,6.46,9.53,5.47-12,1.44-16.68,2.3-15.72-8.46-4.08,9.2-3.85,6.25,1.31-3.17-5.67,9.06-9.36,8.27-14.4-2.15,4.58,10.43,7.85,11.55,12.85,2.13-4.72,9.75-5.42,13.15-3.34,3.07.76,11.64,4.13,11.75,15.9,9.06-11.77,2.68-15.23,2.61-16.21-9.11-1.95,10.13-1.3,6.62,3.23-3.23-4.84,9.52-8.49,8.16-13.54-2.12,5.33,10.19,9.29,11,14.5,1.64-4.75,9.67-4.94,12.58-1.9,3,.23,11.11,4.81,10.16,16.49,8-12.38,1.68-15.41,2.77-11.43-6.16-5,8.84-5.2,10.38,4.56,5-8.85,6.66-8.9,9.32,3.72,7.53-10.28,4.4-3.32,6.49,8.8,10.46-11.89-3.52-16-5.19-4.49-6.34-13.11-.84-14.9-2-4.29-6.13-11.77,2.69-14,2.2-9.93-7.69-5.59,8.65-4.54,6,2.84-1.92-7.49,7.63-7.73,7.86-3.77-1.53-2.2,10.05,1,9.14,12.44,6.18-11.44,2.91-15.88,3.75-17.87-7.9-1.56,10.21-1.41,7.16,2.46-3-4.29,9.88-9.52,8.44-16.06-1.09,6,9.62,10.67,11.51,14.11,1.29-3.23,10.45-4.17,13.59-5.09,2.83,4.07,12.24,7.22,13.19,18,8.56-10.79,4.63-14,3.67-18.29-8.6,1,10.75,1.87,7.41,4.89-3.13-3.25,10.29-8.38,8-14.56-1.32,6.61,9,12.14,9.86,16-.3-3.44,10.31-3.39,12.52-2.94,2.26,3.62,11.29,8.64,9.75,19.13,5.42-10.47,4.35-14.58,5.66-16-5.17-1.41,10-1,8.84,4.37-.42-5.43,9.28-7.08,10.6-8.27.13,2.73,11.19,5.33,11.84,13.69,5.12-7.41,7.58-7.54,9.68,2,4.5-7.08,7.06-1.3,7.25,11,9-12.3-1.72-18.14-1.87-11.11-9-9.55,5.24-9.43,3.15-2.07-4.47-8.32,6.77-11,6.1-14-5.13,1.36,10.52,3,9.25,8.3-.11-5.19,9.35-5.75,10.53-4.76.38,1.81,10.94,5.83,9.76,16.2,5.19-10.39,4.56-15.38,6-19.48-5.39,0,10.36,0,8.17,3.13-2.24-3.56,10.27-9.48,9.28-16.34.45,6.32,9.16,11.77,11.57,14.54,1.11-2.58,10.68-3.65,13.76-5.54,3,5.18,12.29,8.38,13.78,18.74,8.47-10.36,5.31-13.54,3.84-18.66-8.44,1.86,10.81,2.95,7.84,5.59-2.82-2.83,10.46-8.17,8.19-14.49-1,6.86,9,12.71,10.49,16.34.29-3.24,10.39-3.39,13.1-3.11,2.65,3.54,11.73,8.05,10.86,18.93,6.93-10.87,4-14.28,4.81-14.61-6.09-1.87,10.14-1.32,9.43,4.83.73-6.11,8.85-7.29,11-5.64.7,0,11.31,2.1,11.85,12.33,7-9.2,6-8.81,7.53,3.24,5.27-10.13,4.18-5,5.3,7.42,8.09-12.81-3.39-19.72-4.47-12.24-11.94-10.09,5.13-9.4,1.76-2.09-6.22-8,7.09-8.31,6.27-5.59-3.53-1.1,10.21,2.11,9.38,14.09,6.78-11.27,3.06-15.81,4.12-17.47-7.25-1.83,10-1.68,7.34,2.56-2.61-4.65,9.71-9.07,8.91-14.86-1,5.6,10.07,9.75,11.94,14.21,2.21-4.16,10.07-4.89,13.81-3.52,3.44,1.59,12,4.78,12.45,16.57,9.5-11.79,3-14.78,2.49-15.75-9.34-1.72,10.28-.86,6.93,3.85-2.84-5,9.48-8,8.39-12.5-2.17,5,10.63,8.64,11.7,14.56,2.83-5.41,9.29-5.85,12.48-1.19,3.43-1.79,10.69,2.67,10.22,15,9.27-12.9.53-15.56,1.45-8.18-5.38-7.88,7-8.29,9.08,3.34,6-10.58,4.86-8.94,7.21,5,9.19-11.86,1-5.71,4.23,5.44,8.75-11.14-4.5-16.91-7.67-5-8.49-13.81-2.19-15.49-4.6-4.81-9.21-11.7,2.73-11.15.55-2.77-6-7.82,6.29-4.81,5.14,8.08,4.94-12.26.59-16.92,1.09-14.15-9-5.53,8.44-5.12,5.49.77-3.44-6.43,8.47-9.38,7.82-13.3-3,3.48,10.68,6.09,11.2,11.79,2.21-5.39,9.32-6,12.42-2.63,2.89-.69,11.06,3,10.88,14.92,8.86-12,2-15.69,2.15-15.39-9.07-3.15,9.6-2.54,6,2.52-3.51-5.41,9.14-8.41,7.93-12.59-2.53,4.52,10.23,8,10.12,13.8,1.07-5.17,9.32-4.94,11.4-.78,2.43-.58,10.27,5,8.51,16.29,6.44-12.14,1.59-15.85,3.08-11.59-5.26-5.5,8.18-5.28,9,4.13,3.76-8.24,6.55-7.39,8.35,4.58,6.83-9,4.29-1.32,6.15,9.55,10-10.87-3.87-18.9-5.68-10-10.21-11.94,1.74-12.7-.2-4.66-7-9.26,5.46-9.45,4.42-4.67-4.23-3.52,8.67.23,6.87,12.14,4.68-11,2.62-16.75,4.64-17.43-6-3.25,9.37-3.61,7.12,1-2.57-5.2,9.43-9.48,9.15-15-.62,5,9.91,8.74,11,13.27,1.24-4.21,10-4.57,13.05-3.38,2.94C35,157,39.11,156.3,50.16,152.76c-11,3.54-15.12,4.12-17.22-7.36-1.22,10.06-.82,6.84,3.45-3.19-4.58,9.69-8,8.41-12.69-1.54,5.4,9.57,9.7,8.9,15.09-.45-4.63,9.49-3.84,10.87-.07,1.73.77,10,7.6,6.79,17.75,3.63-11.24,2.78-16,5.16-13.91-3.64-4.21,8.54-3.8,8.68,4.08,2-6.67,7.62-5.78,9.18,4.19,5.09-6,6.53,2.64,6.66,13.22,9.43-10.58-2.78-19-3-12.82-9.39-10,3.93-10.83,2.33-4.08-5.16-7.91,6.52-8.17,6.2-3.5-2.08-2.47,8.48,2.61,5.95,13.84,3.34-10.08,3-17,6.1-17.1-3.49-4.42,8.78-5.24,7.57-.34-1.65-5.71,9.06-9.48,10-14.06.27,4,10.09,7,10.88,12.18,1.55-4.77,9.7-4.9,12.65-2.29,3.13.82,10.9,5.46,9.75,16.62,6.82-11.15,2.94-15.67,4-16.18-6.78-2.76,9.45-2.56,6.65,2.44-2.9-5.35,9.2-7.91,8.71-11.17-1.51,4.1,10,7.65,9.2,13.89.57-5.32,8.91-4.56,10.23,1.09,2.11-1.46,9.23,5.65,6.58,16.16,4.72-11.53,1.49-15.64,3.5-9.7-2.9-6.77,6.69-6.2,7.56,3.67,4-7.88,5.41-4.46,6.28,7,7.2-7.89,2.43-.7,4.79,7.31,8.49-8-3.69-14.59-6.08-6.7-8.32-11.23-1.11-14.64-2.07-6.76-7.23-9.82,3.19-10.18,2.11-3-4.08-6.29,5.8-1.89,3.73,9.54,2.46-10.36,1.6-17.44,4-14.89-4.5-6.57,7.36-7.36,6.38-1.64-2-6.71,8.07-9.6,9.3-11.9-.78,1.71,10.22,3.73,10.13,9.92,1.65-5.68,8.91-5.68,11.25-.77,2.85-1.62,9.78,3.67,8.31,14.8,6.37-11.12,1.94-16.26,3.28-14.43-6.41-5,8.29-4.91,5.8.87-3-6.23,8.34-7.89,8.24-8.85-1.9,1.83,9.86,4.89,7.9,11.77.08-5.63,8-4.39,8.14,2.62,1.27-2.56,7.66,5,4.93,14.67,2.95-10.74,1.69-15,3.55-9.12-1.81-6.82,5.63-6,6.15,2.88,2.85-6.25,5.1-2,5.4,7.72,5.85-6,2.68-.3,4.44,6.68,7.3-7-2.86-12.57-4.64-6.56-7.3-9.7-.47-13.79-.86-7.49-5.88-8.82,3.18-9.53,2.54-2.64-3-5.94,5.16-1.51,3.21,9.07,1.5-9.47,1.94-17,4.59-14.21-2.78-7.19,6.6-8.49,6.55-2.82-1.26-7,7.62-9.86,9.6-11-.11.38,9.95,2,9.74,8.37,1.64-5.88,8.58-5.8,10.68-.22,2.78-2.25,9.22,3.33,7.56,14.14,5.69-10.81,1.87-16.29,3.47-13.91-5.69-5.63,7.82-5.65,5.69.3-2.82-6.44,8-7.83,8.14-7.74-1.72.85,9.58,3.84,7.38,10.9-.06-5.64,7.58-4.14,7.33,3.3,1-2.9,7,4.72,4.27,13.88,2.32-10.21,1.72-14.47,3.57-8.43-1.25-6.79,5.18-5.75,5.6,2.85,2.67-5.92,4.68-1.37,4.88,7.68,5.31-5.09,2.61.34,4.2,6.45,6.71-6.11-2.51-11.23-4.12-6.1-6.65-8.82-.49-13-.83-7-5.23-9.65,1.74-7.88-.92,5.81-1.57-10.23,1.37-19,4.66-16.75-2.72-7,6.84-8.28,7.38-2.08,0-6.66,7.77-7.07,10.11-1,3-2.94,8.74,3,7.54,14.73,7.34-11.74.21-17.25,1.28-13.64-7-6.32,6.84-5.79,5,1.35-2.2-6.43,7-5,6.81,3,1.07C47.08,149,55.78,146.79,66,146.6c-12.91-.25-13.62,2.56-3,3.88-6.66,2.74-1.25,4.29,6.72,7-4.45,1.32.58,4.18,4.62,7.41-4-3.23-8.74-6-4.3-7.33-7.69-2.7-12.67-4.32-6.1-6.88-10.21-1.57-9.17-4.46,3.18-4.34-9.74.08-17.5,1.7-13-4.07-8.46,4.71-10,5.18-3.33-.93-7.26,6.28-7.5,7.49.09,2.15-5,6.85.69,6.12,11.89,6.44-11.19-.34-16.38.09-11.2-6.65-7.53,5-6.91,3.39.3-2.88-6.3,5.75-4,4.42,4.33-.29-3.89,5.12,4.2,2.83,12.94,1.87-11,.6-10.5,2.14-1.62,2.64-4.31,2.64.41,3.5,6.54,4.87-2.39,1.88,1.35,3.8,4.6,6-3.25-2.24-6.88-4.15-4.46-6-6-1.38-10.53-2.31-6.29-4.9-8.65-.62-9-2.27,1.69-3.05-8.47,1-16,3-12-1.78-8.19,4.36-10.52,5.66-4.33.19-7,5.95-7.35,7.13.32,2.53-5.25,6.17.11,5.61,10.8,5.76-10.68-.15-15.69.27-10.22-5.72-7.62,4.41-7.1,3.16,0-2.54-6,5.2-3.25,3.69,5-.26-3.89,4.31,3.45,2.49,11.49,1.54-9.68.83-8.56,2.13-.41,3-1.94,3.36,7.49,6.43,10.75,10.55-3.26-4.12-11.53-7.19-9.54-10.38-7.47-1.05-8.41-2.31.35-3.08-7.35.85-13,2-8.84-1.13-7.55,3-10.28,4.42-4.2.68-6.85,4.5-7,5.44,1.07,2.92-6.14,4.36-1.71,4.66,7.7,5.64-12.2-2.73-14.7-3.52-6.78-7.28-6,3.28-2.7,2.28,4.92.46-4.24,2.59,1,2.3,7.62,2.35-6.72.84-4.54,2.72,2,5.67-1.34,3.12,6.12,7.89,8.16,12.74-2-4.88-7.88-9.41-6.53-12.44-5.39-3-7.25-4.84-1.91-5.84-7.24-.83-12.46-.42-7.39-1.44-6.27,2.39-4,4,4.38,7.36C63.62,147.74,63,146,69.47,144c-3.94.72,2,.43,7.81,1.18-2.71,1.23.76,3.05,4.65,6,.58,3,5,7.14,6.56,11.73-1.57-4.62-4.45-8.56-4.88-11.46-2.74-2.89-5.66-4.75-4.47-6.14-5.64-1.78-8.27.17-2.46,6.9-5.57-6.7-.4-8.73,4.76-7.14.11,1.18,3.72,2.91,6.14,5.65A70.29,70.29,0,0,1,94,161.3a106.72,106.72,0,0,0-5.69-10.87c-2-2.81-4.46-4.67-4.68-5.79-3.45-1.77-5,.26-1.26,7.09-3.41-6.89-.53-9.39,3.46-8.1a30.15,30.15,0,0,1,6.43,4.72,60.91,60.91,0,0,1,7.55,9.52c-4.92-7.81-8.71-12.73-10.53-13.87s-1.64,1.5,1.36,8.8c-2.49-7.16-1.26-8.92,1.9-7.21s8.22,6.87,13.4,13.53c-9.67-14-13-18.36-4.41-5.19-7.15-12.86.86-6.06,10.84,4-10.37-9.75-2.49-7.25,6.71-1.22-4.51-6.52,2.79-3.54,9.34-1.71-.9-2.86,6.08-1.35,9.74-1.78l13.54-2.47,28.49-5.19,16.56-3c5.55-1,11.14-.84,16.73-3.06a44.31,44.31,0,0,0,16.73-1.21c5.55-1.32,11.08-3.25,16.56-4.86a53.47,53.47,0,0,1,8.16-4.07c2.7-1.07,5.43-2.35,8.05-2.32s5.2-2.66,7.93-1.78c2.32-3.07,9.41-1.53,7.78,2.35,6.28,4.87,18.78,3.49,7.6-1.1,14.42-.24,26.47-1.11,7.42-.84,20.35.91,24.34-.29,3.63-4.66,21.32,4.39,25.65,4.35,3.57,3.51,22.63,2.27,28.79,1.81,7-2.24,11.05,2.12,18.35,3.4,19.88,4,1.79.69-2.19.75-13.17.53,11,.21,17.66.46,17.29-1,1.4-1.05-4.17-3.87-14-9.08,9.89,5.2,17.88,8.43,17.06,9.34,2.74,1.7-3.14,1.33-13.88.92,10.75.44,23.13,1.72,19.06,1,6.64.91-2.28-.07-12.93-.93,10.66.86,26.27,2.59,17.11,1.1,10.11,1.08-3.58-1.29-14.16-3.8,10.58,2.5,28.12,5.32,16.25,4.19,12.4,1.69-3.68.11-14.81-1.17,11.13,1.27,27.79,2.88,15.25.32,12.51.94-4.48-4.15-13.82-10.1,9.35,6,28.41,11.3,15.06,9.41,14.27,2.46-1.86-1.32-12.29-6.45,10.44,5.13,29.08,9.15,13.78,6.13,15.48,2-2.78-4.59-11.09-13.08,8.32,8.47,23.37,14.46,9.89,10.54,13.33,2.59-2.59-6.67-7.29-18,4.73,11.44,22.34,21,8.36,17.68,15,4,1.56-3-5.85-13.91,7.43,11,30.84,19.51,11.2,16.57,20.62,3.61,7.57-.1-6.48-10.72,14.06,10.62,33.41,14.52,10.87,12.25,22.83,2.21,9-1.17-6.56-14,15.57,12.84,33.35,16.08,9.91,16,23.62.45,12,.7-9.4-5.81,21.43,6.51,35.71,5.91,12.16,8.38,23.58-2.41,10.74-1.19-11.65-5.4,22.39,4.21,35.83,2.89,12.31,5.66,23.54-2.81,11-1.92-11.33-7.89,22.34,6,35,5.05,11.32,6.87,23.65-1.91,12.05-1.85-9.43-11.54,21.48,9.68,31.67,9.79,7.9,9,23.71.52,10.67-2-6.12-17.56,16.8,15.58,30.47,18,6.77,17.24,23.83.92,16.22.59-5.11-11.33,21.34,11.94,31.08,11.93,7.39,11.66,23.75.17,16.89-.79-1.95-17.65,18.85,16.89,27,17.6,3.43,16.69,23.63.92,19.39.36,0-16.35,19.42,16.66,22.62,17.2-.69,11.3,23.24,5.61,12.11.06,1.19-21.25,10.94,21.08,20,26.65-2.56,18,22.59,8.88,16.85,6,2.93-15.08,13.93,21.19,22.48,24.11-.95,20.12,23.48,4.12,20,3.42,1.24-14.22,18.72,17.57,22,18.28-1.29,12.5,23.22,5.58,13.94,1.48,1.51-20,12.44,21.69,20.45,25.6-2.53,18.37,23,7.3,17.38,4.71,3.14-16.6,14.25,21.17,22.41,23.82-.92,20.07,23.38,3.89,20.72,3.49,1.34-13.22,19.38,16.74,25,16.7,2.19,18.53,22.87-1.79,20.33-1.54-1.7-12.24,22,10.7,27,10,5.05,15.09,22-5.08,18.58-4.46-4.5-9.5,23.08,5,27.92,4.13,6.84,11.55,21.09-7.41,16.94-6.6-6.24-8.73,23.18,2.13,28.75,1,9,11.39,19.76-10.31,13.8-9-7.71-.18,21.51-8.83,28.43-10.31,9.68,1.8,18.75-12.11,13.07-11-9-4.77,22.07-6.19,28-7.4,9.78,5.52,18.28-12.9,10.87-11.23-9.08,1.26,19.95-12.49,27.52-14.16,10.53.8,17-14.95,8-12.6-9.15,4.72,17.16-17.32,26.42-19.7,10.12-3.83,16.31-15.87,8.08-13.87-9.46,2.64,17.54-16.51,25-18.31,9.48-1.2,15.49-17.08,2.85-11.71-8.84,11.22,11.69-22.92,22.23-27.7,8.43-8.3,13.8-19.36,1.21-11.43-7.84,12.22,9-23.86,22.95-31.95,8.6-13.42,14.36-18.58,5.74-15.8-8.31,5.07,14-20.88,22.77-23.67,8.41-5.12,14.35-18.51-.07-9.36-8.15,14.73,8.1-23.71,17.36-31.27,6.72-8.68,10.62-22.4-1.72-3.75-5.8,15.89,4.15-20.3,13.5-36.39,5.17-12.55C393.67,132.38,383.78,155.68,381,172Z" transform="translate(-12.94 -24.78)"/></svg>