<?xml version="1.0" encoding="utf-8"?>
<!-- Generator: Adobe Illustrator 25.2.0, SVG Export Plug-In . SVG Version: 6.00 Build 0)  -->
<svg version="1.1" id="Layer_1" xmlns="http://www.w3.org/2000/svg" xmlns:xlink="http://www.w3.org/1999/xlink" x="0px" y="0px"
	 viewBox="0 0 174.1 349.6" style="enable-background:new 0 0 174.1 349.6;" xml:space="preserve">
<style type="text/css">
	.st0{fill:url(#SVGID_1_);}
	.st1{fill:url(#SVGID_2_);}
	.st2{fill:url(#SVGID_3_);}
	.st3{fill:url(#SVGID_4_);}
	.st4{fill:url(#SVGID_5_);}
	.st5{fill:url(#SVGID_6_);}
	.st6{fill:url(#SVGID_7_);}
	.st7{fill:url(#SVGID_8_);}
	.st8{fill:url(#SVGID_9_);}
	.st9{fill:#4F5560;}
	.st10{fill:#292B2D;}
	.st11{fill:url(#SVGID_10_);}
	.st12{fill:#0F0F10;}
	.st13{fill:url(#SVGID_11_);}
	.st14{fill:url(#SVGID_12_);}
	.st15{fill:url(#SVGID_13_);}
	.st16{fill:url(#SVGID_14_);}
	.st17{fill:url(#SVGID_15_);}
	.st18{fill:url(#SVGID_16_);}
	.st19{fill:url(#SVGID_17_);}
	.st20{fill:#0B0B0C;}
	.st21{fill:#FFFFFF;}
	.st22{fill:url(#SVGID_18_);}
	.st23{fill:url(#SVGID_19_);}
	.st24{fill:url(#SVGID_20_);}
	.st25{fill:url(#SVGID_21_);}
	.st26{fill:#1F205A;}
	.st27{fill:#FFE29E;}
	.st28{fill:#8BD7F8;}
</style>
<linearGradient id="SVGID_1_" gradientUnits="userSpaceOnUse" x1="113.27" y1="427.5602" x2="138.57" y2="427.5602" gradientTransform="matrix(1 0 0 1 0 -418.1102)">
	<stop  offset="0" style="stop-color:#1E1E1F"/>
	<stop  offset="1.250000e-02" style="stop-color:#3D3C3E"/>
	<stop  offset="3.620000e-02" style="stop-color:#606163"/>
	<stop  offset="4.840000e-02" style="stop-color:#717375"/>
	<stop  offset="7.830000e-02" style="stop-color:#4E4E50"/>
	<stop  offset="8.600000e-02" style="stop-color:#434344"/>
	<stop  offset="0.9409" style="stop-color:#4F4F51"/>
	<stop  offset="0.9416" style="stop-color:#555557"/>
	<stop  offset="0.9471" style="stop-color:#737578"/>
	<stop  offset="0.9525" style="stop-color:#8A8C8E"/>
	<stop  offset="0.9578" style="stop-color:#9A9C9E"/>
	<stop  offset="0.9629" style="stop-color:#A4A6A8"/>
	<stop  offset="0.9677" style="stop-color:#A7A9AC"/>
	<stop  offset="0.9782" style="stop-color:#7C7E80"/>
	<stop  offset="0.9881" style="stop-color:#57585A"/>
	<stop  offset="0.9957" style="stop-color:#39393A"/>
	<stop  offset="1" style="stop-color:#222223"/>
</linearGradient>
<path class="st0" d="M138.6,11c0,0.6-0.4,1-1,1h-23.3c-0.6,0-1-0.4-1-1V7.9c0-0.6,0.4-1,1-1h23.3c0.6,0,1,0.4,1,1V11z"/>
<radialGradient id="SVGID_2_" cx="125.12" cy="425.4852" r="13.412" gradientTransform="matrix(1 0 0 1 0 -418.1102)" gradientUnits="userSpaceOnUse">
	<stop  offset="0" style="stop-color:#A7A9AC"/>
	<stop  offset="0.1162" style="stop-color:#A4A6A8"/>
	<stop  offset="0.2397" style="stop-color:#9A9C9E"/>
	<stop  offset="0.3668" style="stop-color:#8A8C8E"/>
	<stop  offset="0.4963" style="stop-color:#737578"/>
	<stop  offset="0.6264" style="stop-color:#555557"/>
	<stop  offset="0.6452" style="stop-color:#4F4F51"/>
	<stop  offset="0.774" style="stop-color:#4D4E50"/>
	<stop  offset="0.8204" style="stop-color:#474749"/>
	<stop  offset="0.8533" style="stop-color:#383839"/>
	<stop  offset="0.871" style="stop-color:#222223"/>
	<stop  offset="0.926" style="stop-color:#39393A"/>
	<stop  offset="0.9516" style="stop-color:#434344"/>
	<stop  offset="0.9616" style="stop-color:#4E4E50"/>
	<stop  offset="1" style="stop-color:#717375"/>
</radialGradient>
<path class="st1" d="M113.4,7.5h25.1c-0.2-0.3-0.5-0.6-0.9-0.6h-23.3C113.9,6.9,113.5,7.2,113.4,7.5z"/>
<linearGradient id="SVGID_3_" gradientUnits="userSpaceOnUse" x1="9.5" y1="472.3602" x2="9.5" y2="487.2372" gradientTransform="matrix(1 0 0 1 0 -418.1102)">
	<stop  offset="0" style="stop-color:#222223"/>
	<stop  offset="1.010000e-02" style="stop-color:#39393A"/>
	<stop  offset="2.780000e-02" style="stop-color:#57585A"/>
	<stop  offset="5.090000e-02" style="stop-color:#7C7E80"/>
	<stop  offset="7.530000e-02" style="stop-color:#A7A9AC"/>
	<stop  offset="0.1159" style="stop-color:#A4A6A8"/>
	<stop  offset="0.1592" style="stop-color:#9A9C9E"/>
	<stop  offset="0.2037" style="stop-color:#8A8C8E"/>
	<stop  offset="0.249" style="stop-color:#737578"/>
	<stop  offset="0.2945" style="stop-color:#555557"/>
	<stop  offset="0.3011" style="stop-color:#4F4F51"/>
	<stop  offset="0.9086" style="stop-color:#434344"/>
	<stop  offset="0.9175" style="stop-color:#4E4E50"/>
	<stop  offset="0.9516" style="stop-color:#717375"/>
	<stop  offset="0.9638" style="stop-color:#606163"/>
	<stop  offset="0.9875" style="stop-color:#3D3C3E"/>
	<stop  offset="1" style="stop-color:#1E1E1F"/>
</linearGradient>
<path class="st2" d="M12.3,68c0,0.6-0.4,1-1,1H7.6c-0.6,0-1-0.4-1-1V55.2c0-0.5,0.4-1,1-1h3.8c0.6,0,1,0.5,1,1L12.3,68L12.3,68z"/>
<radialGradient id="SVGID_4_" cx="6.9375" cy="479.9222" r="7.5065" gradientTransform="matrix(1 0 0 1 0 -418.1102)" gradientUnits="userSpaceOnUse">
	<stop  offset="0" style="stop-color:#A7A9AC"/>
	<stop  offset="0.1142" style="stop-color:#A4A6A8"/>
	<stop  offset="0.2357" style="stop-color:#9A9C9E"/>
	<stop  offset="0.3607" style="stop-color:#8A8C8E"/>
	<stop  offset="0.488" style="stop-color:#737578"/>
	<stop  offset="0.616" style="stop-color:#555557"/>
	<stop  offset="0.6344" style="stop-color:#4F4F51"/>
	<stop  offset="0.828" style="stop-color:#222223"/>
	<stop  offset="0.883" style="stop-color:#39393A"/>
	<stop  offset="0.9086" style="stop-color:#434344"/>
	<stop  offset="0.9274" style="stop-color:#4E4E50"/>
	<stop  offset="1" style="stop-color:#717375"/>
</radialGradient>
<path class="st3" d="M7.2,54.3c-0.4,0.1-0.7,0.5-0.7,0.9V68c0,0.4,0.3,0.8,0.7,0.9V54.3z"/>
<linearGradient id="SVGID_5_" gradientUnits="userSpaceOnUse" x1="9.2" y1="503.6102" x2="9.2" y2="514.9472" gradientTransform="matrix(1 0 0 1 0 -418.1102)">
	<stop  offset="0" style="stop-color:#222223"/>
	<stop  offset="7.430000e-02" style="stop-color:#272728"/>
	<stop  offset="0.101" style="stop-color:#353536"/>
	<stop  offset="0.1201" style="stop-color:#464647"/>
	<stop  offset="0.1355" style="stop-color:#555658"/>
	<stop  offset="0.1487" style="stop-color:#68696B"/>
	<stop  offset="0.1604" style="stop-color:#7C7E81"/>
	<stop  offset="0.1708" style="stop-color:#949699"/>
	<stop  offset="0.1774" style="stop-color:#A7A9AC"/>
	<stop  offset="0.1881" style="stop-color:#A4A6A8"/>
	<stop  offset="0.1994" style="stop-color:#9A9C9E"/>
	<stop  offset="0.211" style="stop-color:#8A8C8E"/>
	<stop  offset="0.2229" style="stop-color:#737578"/>
	<stop  offset="0.2348" style="stop-color:#555557"/>
	<stop  offset="0.2366" style="stop-color:#4F4F51"/>
	<stop  offset="0.9086" style="stop-color:#434344"/>
	<stop  offset="0.9175" style="stop-color:#4E4E50"/>
	<stop  offset="0.9516" style="stop-color:#717375"/>
	<stop  offset="0.9638" style="stop-color:#606163"/>
	<stop  offset="0.9875" style="stop-color:#3D3C3E"/>
	<stop  offset="1" style="stop-color:#1E1E1F"/>
</linearGradient>
<path class="st4" d="M11.5,95.8c0,0.6-0.4,1-1,1H7.8c-0.6,0-1-0.4-1-1v-9.4c0-0.6,0.4-1,1-1h2.8c0.6,0,1,0.4,1,1v9.4H11.5z"/>
<radialGradient id="SVGID_6_" cx="7.2085" cy="509.4022" r="5.6679" gradientTransform="matrix(1 0 0 1 0 -418.1102)" gradientUnits="userSpaceOnUse">
	<stop  offset="0" style="stop-color:#A7A9AC"/>
	<stop  offset="0.1162" style="stop-color:#A4A6A8"/>
	<stop  offset="0.2397" style="stop-color:#9A9C9E"/>
	<stop  offset="0.3668" style="stop-color:#8A8C8E"/>
	<stop  offset="0.4963" style="stop-color:#737578"/>
	<stop  offset="0.6264" style="stop-color:#555557"/>
	<stop  offset="0.6452" style="stop-color:#4F4F51"/>
	<stop  offset="0.8139" style="stop-color:#4D4E50"/>
	<stop  offset="0.8746" style="stop-color:#474749"/>
	<stop  offset="0.9178" style="stop-color:#383839"/>
	<stop  offset="0.9409" style="stop-color:#222223"/>
	<stop  offset="0.9812" style="stop-color:#39393A"/>
	<stop  offset="1" style="stop-color:#434344"/>
</radialGradient>
<path class="st5" d="M7.2,85.6c-0.3,0.2-0.5,0.5-0.5,0.8v9.4c0,0.4,0.2,0.7,0.5,0.8V85.6z"/>
<linearGradient id="SVGID_7_" gradientUnits="userSpaceOnUse" x1="9.2" y1="531.0702" x2="9.2" y2="542.4002" gradientTransform="matrix(1 0 0 1 0 -418.1102)">
	<stop  offset="0" style="stop-color:#222223"/>
	<stop  offset="7.430000e-02" style="stop-color:#272728"/>
	<stop  offset="0.101" style="stop-color:#353536"/>
	<stop  offset="0.1201" style="stop-color:#464647"/>
	<stop  offset="0.1355" style="stop-color:#555658"/>
	<stop  offset="0.1487" style="stop-color:#68696B"/>
	<stop  offset="0.1604" style="stop-color:#7C7E81"/>
	<stop  offset="0.1708" style="stop-color:#949699"/>
	<stop  offset="0.1774" style="stop-color:#A7A9AC"/>
	<stop  offset="0.1881" style="stop-color:#A4A6A8"/>
	<stop  offset="0.1994" style="stop-color:#9A9C9E"/>
	<stop  offset="0.211" style="stop-color:#8A8C8E"/>
	<stop  offset="0.2229" style="stop-color:#737578"/>
	<stop  offset="0.2348" style="stop-color:#555557"/>
	<stop  offset="0.2366" style="stop-color:#4F4F51"/>
	<stop  offset="0.9086" style="stop-color:#434344"/>
	<stop  offset="0.9175" style="stop-color:#4E4E50"/>
	<stop  offset="0.9516" style="stop-color:#717375"/>
	<stop  offset="0.9638" style="stop-color:#606163"/>
	<stop  offset="0.9875" style="stop-color:#3D3C3E"/>
	<stop  offset="1" style="stop-color:#1E1E1F"/>
</linearGradient>
<path class="st6" d="M11.5,123.3c0,0.6-0.4,1-1,1H7.8c-0.6,0-1-0.4-1-1v-9.4c0-0.6,0.4-1,1-1h2.8c0.6,0,1,0.4,1,1v9.4H11.5z"/>
<radialGradient id="SVGID_8_" cx="7.2085" cy="536.8602" r="5.6679" gradientTransform="matrix(1 0 0 1 0 -418.1102)" gradientUnits="userSpaceOnUse">
	<stop  offset="0" style="stop-color:#A7A9AC"/>
	<stop  offset="0.1162" style="stop-color:#A4A6A8"/>
	<stop  offset="0.2397" style="stop-color:#9A9C9E"/>
	<stop  offset="0.3668" style="stop-color:#8A8C8E"/>
	<stop  offset="0.4963" style="stop-color:#737578"/>
	<stop  offset="0.6264" style="stop-color:#555557"/>
	<stop  offset="0.6452" style="stop-color:#4F4F51"/>
	<stop  offset="0.8139" style="stop-color:#4D4E50"/>
	<stop  offset="0.8746" style="stop-color:#474749"/>
	<stop  offset="0.9178" style="stop-color:#383839"/>
	<stop  offset="0.9409" style="stop-color:#222223"/>
	<stop  offset="0.9812" style="stop-color:#39393A"/>
	<stop  offset="1" style="stop-color:#434344"/>
</radialGradient>
<path class="st7" d="M7.2,113.1c-0.3,0.2-0.5,0.5-0.5,0.8v9.4c0,0.4,0.2,0.7,0.5,0.8V113.1z"/>
<linearGradient id="SVGID_9_" gradientUnits="userSpaceOnUse" x1="86.65" y1="426.6102" x2="86.65" y2="757.4102" gradientTransform="matrix(1 0 0 1 0 -418.1102)">
	<stop  offset="0" style="stop-color:#000000"/>
	<stop  offset="2.460000e-02" style="stop-color:#414042"/>
	<stop  offset="4.930000e-02" style="stop-color:#BDBFC1"/>
	<stop  offset="7.260000e-02" style="stop-color:#2E2D2F"/>
	<stop  offset="0.8916" style="stop-color:#1E1E1F"/>
	<stop  offset="0.901" style="stop-color:#2B2B2C"/>
	<stop  offset="0.9127" style="stop-color:#454446"/>
	<stop  offset="0.9257" style="stop-color:#5C5C5F"/>
	<stop  offset="0.9395" style="stop-color:#787A7C"/>
	<stop  offset="0.954" style="stop-color:#9A9C9E"/>
	<stop  offset="0.9589" style="stop-color:#A7A9AC"/>
	<stop  offset="0.9605" style="stop-color:#939698"/>
	<stop  offset="0.9629" style="stop-color:#7C7E80"/>
	<stop  offset="0.9656" style="stop-color:#67686B"/>
	<stop  offset="0.9686" style="stop-color:#555557"/>
	<stop  offset="0.9722" style="stop-color:#454547"/>
	<stop  offset="0.9766" style="stop-color:#343435"/>
	<stop  offset="0.9828" style="stop-color:#262526"/>
	<stop  offset="1" style="stop-color:#212122"/>
</linearGradient>
<path class="st8" d="M164.9,315.3c0,13.2-10.8,24-24,24H32.4c-13.2,0-24-10.8-24-24V32.5c0-13.2,10.8-24,24-24h108.5
	c13.2,0,24,10.8,24,24V315.3z"/>
<path class="st9" d="M32.4,337.3c-12.1,0-22-9.9-22-22V32.5c0-12.1,9.9-22,22-22h108.5c12.1,0,22,9.9,22,22v282.8
	c0,12.1-9.9,22-22,22H32.4z"/>
<path class="st10" d="M32.4,336.8c-11.9,0-21.5-9.6-21.5-21.5V32.5c0-11.9,9.6-21.5,21.5-21.5h108.5c11.9,0,21.5,9.6,21.5,21.5
	v282.8c0,11.9-9.6,21.5-21.5,21.5H32.4z"/>
<path d="M32.4,335.3c-11,0-20-9-20-20V32.5c0-11,9-20,20-20h108.5c11,0,20,9,20,20v282.8c0,11-9,20-20,20H32.4z"/>
<radialGradient id="SVGID_10_" cx="86.6" cy="463.6102" r="14.0299" gradientTransform="matrix(1 0 0 1 0 -418.1102)" gradientUnits="userSpaceOnUse">
	<stop  offset="0" style="stop-color:#4F4F51"/>
	<stop  offset="0.2693" style="stop-color:#515153"/>
	<stop  offset="0.3663" style="stop-color:#57575A"/>
	<stop  offset="0.4355" style="stop-color:#616264"/>
	<stop  offset="0.4914" style="stop-color:#6E7072"/>
	<stop  offset="0.5393" style="stop-color:#7F8183"/>
	<stop  offset="0.5809" style="stop-color:#939597"/>
	<stop  offset="0.6129" style="stop-color:#A7A9AC"/>
	<stop  offset="0.6871" style="stop-color:#8E9092"/>
	<stop  offset="0.8343" style="stop-color:#606163"/>
	<stop  offset="0.9428" style="stop-color:#3D3C3E"/>
	<stop  offset="1" style="stop-color:#1E1E1F"/>
</radialGradient>
<path class="st11" d="M101.3,37.4c0,1.8-1.5,3.3-3.3,3.3H75.2c-1.8,0-3.3-1.5-3.3-3.3s1.5-3.3,3.3-3.3H98
	C99.8,34.1,101.3,35.6,101.3,37.4z"/>
<path class="st12" d="M99.5,37.2c0,0.9-0.7,1.6-1.6,1.6H75.2c-0.9,0-1.6-0.7-1.6-1.6s0.7-1.6,1.6-1.6h22.6
	C98.7,35.6,99.5,36.3,99.5,37.2z"/>
<linearGradient id="SVGID_11_" gradientUnits="userSpaceOnUse" x1="73.6" y1="455.3602" x2="99.4317" y2="455.3602" gradientTransform="matrix(1 0 0 1 0 -418.1102)">
	<stop  offset="0" style="stop-color:#4F4F51"/>
	<stop  offset="0.2693" style="stop-color:#515153"/>
	<stop  offset="0.3663" style="stop-color:#57575A"/>
	<stop  offset="0.4355" style="stop-color:#616264"/>
	<stop  offset="0.4914" style="stop-color:#6E7072"/>
	<stop  offset="0.5393" style="stop-color:#7F8183"/>
	<stop  offset="0.5809" style="stop-color:#939597"/>
	<stop  offset="0.6129" style="stop-color:#A7A9AC"/>
	<stop  offset="0.6871" style="stop-color:#8E9092"/>
	<stop  offset="0.8343" style="stop-color:#606163"/>
	<stop  offset="0.9428" style="stop-color:#3D3C3E"/>
	<stop  offset="1" style="stop-color:#1E1E1F"/>
</linearGradient>
<path class="st13" d="M98.8,37.7l0.4-0.4l0.2,0.2v-0.1l-0.2-0.2l0.2-0.2v-0.1l-0.2,0.2l-0.4-0.4l0.4-0.4l-0.1-0.1l-0.4,0.4l-0.4-0.4
	l0.4-0.4h-0.1l-0.4,0.4l-0.4-0.4l0.1-0.1h-0.1l0,0l-0.1,0.1l-0.1-0.1h-0.1l0.1,0.1l-0.4,0.4l-0.4-0.4l0.1-0.1h-0.1l-0.1,0.1
	l-0.1-0.1h-0.1l0.1,0.1l-0.4,0.4l-0.4-0.4l0.1-0.1h-0.1l-0.1,0.1l-0.1-0.1h-0.1l0.1,0.1l-0.4,0.4l-0.4-0.4l0.1-0.1h-0.1l-0.1,0.1
	l-0.1-0.1h-0.1l0.1,0.1l-0.4,0.4l-0.4-0.4l0.1-0.1h-0.1l-0.1,0.1l-0.1-0.1h-0.1l0.1,0.1l-0.4,0.4l-0.4-0.4l0.1-0.1h-0.1l-0.1,0.1
	l-0.1-0.1h-0.1l0.1,0.1l-0.4,0.4l-0.4-0.4l0.1-0.1h-0.1l-0.1,0.1l-0.1-0.1h-0.1l0.1,0.1l-0.4,0.4l-0.4-0.4l0.1-0.1h-0.1l-0.1,0.1
	l-0.1-0.1h-0.1l0.1,0.1l-0.4,0.4l-0.4-0.4l0.1-0.1h-0.1l-0.1,0.1l-0.1-0.1h-0.1l0.1,0.1l-0.4,0.4l-0.4-0.4l0.1-0.1h-0.1l-0.1,0.1
	l-0.1-0.1h-0.1l0.1,0.1l-0.4,0.4l-0.4-0.4l0.1-0.1h-0.1l-0.1,0.1l-0.1-0.1h-0.1l0.1,0.1l-0.4,0.4l-0.4-0.4l0.1-0.1h-0.1l-0.1,0.1
	l-0.1-0.1h-0.1l0.1,0.1l-0.4,0.4l-0.4-0.4l0.1-0.1h-0.1l-0.1,0.1l-0.1-0.1h-0.1l0.1,0.1l-0.4,0.4l-0.4-0.4l0.1-0.1h-0.1l-0.1,0.1
	l-0.1-0.1h-0.1l0.1,0.1l-0.4,0.4l-0.4-0.4l0.1-0.1h-0.1l-0.1,0.1l-0.1-0.1h-0.1l0.1,0.1l-0.4,0.4l-0.4-0.4l0.1-0.1h-0.1l-0.1,0.1
	l-0.1-0.1h-0.1l0.1,0.1l-0.4,0.4l-0.4-0.4l0.1-0.1h-0.1l-0.1,0.1l-0.1-0.1h-0.1l0.1,0.1l-0.4,0.4l-0.4-0.4l0.1-0.1h-0.1l-0.1,0.1
	l-0.1-0.1h-0.1l0.1,0.1l-0.4,0.4l-0.4-0.4l0.1-0.1h-0.1l-0.1,0.1l-0.1-0.1h-0.1l0.1,0.1l-0.4,0.4l-0.4-0.4l0.1-0.1h-0.1l-0.1,0.1
	l-0.1-0.1h-0.1l0.1,0.1l-0.4,0.4l-0.4-0.4l0.1-0.1h-0.1l-0.1,0.1l-0.1-0.1h-0.1l0.1,0.1l-0.4,0.4l-0.4-0.4l0.1-0.1h-0.1l-0.1,0.1
	l-0.1-0.1h-0.1l0.1,0.1l-0.4,0.4l-0.4-0.4l0.1-0.1h-0.1l-0.1,0.1l-0.1-0.1h-0.1l0.1,0.1l-0.4,0.4l-0.4-0.4l0.1-0.1
	c-0.1,0-0.2,0-0.3,0.1l0,0l-0.4,0.4L74.1,36c0,0,0,0-0.1,0.1l0.1,0.1l-0.4,0.4l0,0c0,0.1-0.1,0.2-0.1,0.3l0.1-0.1l0.4,0.4l-0.4,0.4
	l-0.1-0.1c0,0.1,0,0.2,0.1,0.2l0,0l0.4,0.4L74,38.3l0.1,0.1l0.1-0.1l0.4,0.4c0.1,0,0.1,0,0.2,0.1l-0.1-0.1l0.4-0.4l0.4,0.4l-0.1,0.1
	h0.1l0,0l0,0h0.1l-0.1-0.1l0.4-0.4l0.4,0.4l-0.1,0.1h0.1l0,0l0,0h0.1l-0.1-0.1l0.4-0.4l0.4,0.4L77,38.8h0.1l0,0l0,0h0.1l-0.1-0.1
	l0.4-0.4l0.4,0.4l-0.1,0.1h0.1l0,0l0,0H78l-0.1-0.1l0.4-0.4l0.4,0.4l-0.1,0.1h0.1l0,0l0,0h0.1l-0.1-0.1l0.4-0.4l0.4,0.4l-0.1,0.1
	h0.1l0,0l0,0h0.1l-0.1-0.1l0.4-0.4l0.4,0.4l-0.1,0.1h0.1l0,0l0,0h0.1l-0.1-0.1l0.4-0.4l0.4,0.4L81,38.8h0.1l0,0l0,0h0.1l-0.1-0.1
	l0.4-0.4l0.4,0.4l-0.1,0.1h0.1l0,0l0,0H82l-0.1-0.1l0.4-0.4l0.4,0.4l-0.1,0.1h0.1l0,0l0,0h0.1l-0.1-0.1l0.4-0.4l0.4,0.4l-0.1,0.1
	h0.1l0,0l0,0h0.1l-0.1-0.1l0.4-0.4l0.4,0.4l-0.1,0.1h0.1l0,0l0,0h0.1l-0.1-0.1l0.4-0.4l0.4,0.4L85,38.8h0.1l0,0l0,0h0.1l-0.1-0.1
	l0.4-0.4l0.4,0.4l-0.1,0.1h0.1l0,0l0,0H86l-0.1-0.1l0.4-0.4l0.4,0.4l-0.1,0.1h0.1l0,0l0,0h0.1l-0.1-0.1l0.4-0.4l0.4,0.4l-0.1,0.1
	h0.1l0,0l0,0h0.1l-0.1-0.1l0.4-0.4l0.4,0.4l-0.1,0.1h0.1l0,0l0,0h0.1l-0.1-0.1l0.4-0.4l0.4,0.4L89,38.8h0.1l0,0l0,0h0.1l-0.1-0.1
	l0.4-0.4l0.4,0.4l-0.1,0.1h0.1l0,0l0,0H90l-0.1-0.1l0.4-0.4l0.4,0.4l-0.1,0.1h0.1l0,0l0,0h0.1l-0.1-0.1l0.4-0.4l0.4,0.4l-0.1,0.1
	h0.1l0,0l0,0h0.1l-0.1-0.1l0.4-0.4l0.4,0.4l-0.1,0.1h0.1l0,0l0,0h0.1l-0.1-0.1l0.4-0.4l0.4,0.4L93,38.8h0.1l0,0l0,0h0.1
	c0,0,0,0,0.1,0l-0.1-0.1l0.4-0.4l0.4,0.4h0.1l-0.4-0.4L98.8,37.7l0.4,0.5c0,0,0,0,0.1-0.1L98.8,37.7L98.8,37.7z M98.6,36.7l-0.4,0.4
	l-0.4-0.4l0.4-0.4L98.6,36.7z M98.1,37.2l-0.4,0.4l-0.4-0.4l0.4-0.4L98.1,37.2z M97.7,35.8l0.4,0.4l-0.4,0.4l-0.4-0.4L97.7,35.8z
	 M97.6,36.7l-0.4,0.4l-0.4-0.4l0.4-0.4L97.6,36.7z M97.1,37.2l-0.4,0.4l-0.4-0.4l0.4-0.4L97.1,37.2z M96.7,35.8l0.4,0.4l-0.4,0.4
	l-0.4-0.4L96.7,35.8z M96.6,36.7l-0.4,0.4l-0.4-0.4l0.4-0.4L96.6,36.7z M96.1,37.2l-0.4,0.4l-0.4-0.4l0.4-0.4L96.1,37.2z M95.7,35.8
	l0.4,0.4l-0.4,0.4l-0.4-0.4L95.7,35.8z M95.6,36.7l-0.4,0.4l-0.4-0.4l0.4-0.4L95.6,36.7z M95.1,37.2l-0.4,0.4l-0.4-0.4l0.4-0.4
	L95.1,37.2z M94.7,35.8l0.4,0.4l-0.4,0.4l-0.4-0.4L94.7,35.8z M94.6,36.7l-0.4,0.4l-0.4-0.4l0.4-0.4L94.6,36.7z M94.1,37.2l-0.4,0.4
	l-0.4-0.4l0.4-0.4L94.1,37.2z M93.7,35.8l0.4,0.4l-0.4,0.4l-0.4-0.4L93.7,35.8z M93.6,36.7l-0.4,0.4l-0.4-0.4l0.4-0.4L93.6,36.7z
	 M93.1,37.2l-0.4,0.4l-0.4-0.4l0.4-0.4L93.1,37.2z M92.7,35.8l0.4,0.4l-0.4,0.4l-0.4-0.4L92.7,35.8z M92.6,36.7l-0.4,0.4l-0.4-0.4
	l0.4-0.4L92.6,36.7z M92.1,37.2l-0.4,0.4l-0.4-0.4l0.4-0.4L92.1,37.2z M91.7,35.8l0.4,0.4l-0.4,0.4l-0.4-0.4L91.7,35.8z M91.6,36.7
	l-0.4,0.4l-0.4-0.4l0.4-0.4L91.6,36.7z M91.1,37.2l-0.4,0.4l-0.4-0.4l0.4-0.4L91.1,37.2z M90.7,35.8l0.4,0.4l-0.4,0.4l-0.4-0.4
	L90.7,35.8z M90.6,36.7l-0.4,0.4l-0.4-0.4l0.4-0.4L90.6,36.7z M90.1,37.2l-0.4,0.4l-0.4-0.4l0.4-0.4L90.1,37.2z M89.7,35.8l0.4,0.4
	l-0.4,0.4l-0.4-0.4L89.7,35.8z M89.6,36.7l-0.4,0.4l-0.4-0.4l0.4-0.4L89.6,36.7z M89.1,37.2l-0.4,0.4l-0.4-0.4l0.4-0.4L89.1,37.2z
	 M88.7,35.8l0.4,0.4l-0.4,0.4l-0.4-0.4L88.7,35.8z M88.6,36.7l-0.4,0.4l-0.4-0.4l0.4-0.4L88.6,36.7z M88.1,37.2l-0.4,0.4l-0.4-0.4
	l0.4-0.4L88.1,37.2z M87.7,35.8l0.4,0.4l-0.4,0.4l-0.4-0.4L87.7,35.8z M87.6,36.7l-0.4,0.4l-0.4-0.4l0.4-0.4L87.6,36.7z M87.1,37.2
	l-0.4,0.4l-0.4-0.4l0.4-0.4L87.1,37.2z M86.7,35.8l0.4,0.4l-0.4,0.4l-0.4-0.4L86.7,35.8z M86.6,36.7l-0.4,0.4l-0.4-0.4l0.4-0.4
	L86.6,36.7z M86.1,37.2l-0.4,0.4l-0.4-0.4l0.4-0.4L86.1,37.2z M85.7,35.8l0.4,0.4l-0.4,0.4l-0.4-0.4L85.7,35.8z M85.6,36.7l-0.4,0.4
	l-0.4-0.4l0.4-0.4L85.6,36.7z M85.1,37.2l-0.4,0.4l-0.4-0.4l0.4-0.4L85.1,37.2z M84.7,35.8l0.4,0.4l-0.4,0.4l-0.4-0.4L84.7,35.8z
	 M84.6,36.7l-0.4,0.4l-0.4-0.4l0.4-0.4L84.6,36.7z M84.1,37.2l-0.4,0.4l-0.4-0.4l0.4-0.4L84.1,37.2z M83.7,35.8l0.4,0.4l-0.4,0.4
	l-0.4-0.4L83.7,35.8z M83.6,36.7l-0.4,0.4l-0.4-0.4l0.4-0.4L83.6,36.7z M83.1,37.2l-0.4,0.4l-0.4-0.4l0.4-0.4L83.1,37.2z M82.7,35.8
	l0.4,0.4l-0.4,0.4l-0.4-0.4L82.7,35.8z M82.6,36.7l-0.4,0.4l-0.4-0.4l0.4-0.4L82.6,36.7z M82.1,37.2l-0.4,0.4l-0.4-0.4l0.4-0.4
	L82.1,37.2z M81.7,35.8l0.4,0.4l-0.4,0.4l-0.4-0.4L81.7,35.8z M81.6,36.7l-0.4,0.4l-0.4-0.4l0.4-0.4L81.6,36.7z M81.1,37.2l-0.4,0.4
	l-0.4-0.4l0.4-0.4L81.1,37.2z M80.7,35.8l0.4,0.4l-0.4,0.4l-0.4-0.4L80.7,35.8z M80.6,36.7l-0.4,0.4l-0.4-0.4l0.4-0.4L80.6,36.7z
	 M80.1,37.2l-0.4,0.4l-0.4-0.4l0.4-0.4L80.1,37.2z M79.7,35.8l0.4,0.4l-0.4,0.4l-0.4-0.4L79.7,35.8z M79.6,36.7l-0.4,0.4l-0.4-0.4
	l0.4-0.4L79.6,36.7z M79.1,37.2l-0.4,0.4l-0.4-0.4l0.4-0.4L79.1,37.2z M78.7,35.8l0.4,0.4l-0.4,0.4l-0.4-0.4L78.7,35.8z M78.6,36.7
	l-0.4,0.4l-0.4-0.4l0.4-0.4L78.6,36.7z M78.1,37.2l-0.4,0.4l-0.4-0.4l0.4-0.4L78.1,37.2z M77.7,35.8l0.4,0.4l-0.4,0.4l-0.4-0.4
	L77.7,35.8z M77.6,36.7l-0.4,0.4l-0.4-0.4l0.4-0.4L77.6,36.7z M77.1,37.2l-0.4,0.4l-0.4-0.4l0.4-0.4L77.1,37.2z M76.7,35.8l0.4,0.4
	l-0.4,0.4l-0.4-0.4L76.7,35.8z M76.6,36.7l-0.4,0.4l-0.4-0.4l0.4-0.4L76.6,36.7z M76.1,37.2l-0.4,0.4l-0.4-0.4l0.4-0.4L76.1,37.2z
	 M75.7,35.8l0.4,0.4l-0.4,0.4l-0.4-0.4L75.7,35.8z M75.6,36.7l-0.4,0.4l-0.4-0.4l0.4-0.4L75.6,36.7z M75.1,37.2l-0.4,0.4l-0.4-0.4
	l0.4-0.4L75.1,37.2z M74.7,35.8l0.4,0.4l-0.4,0.4l-0.4-0.4L74.7,35.8z M73.8,36.7l0.4-0.4l0.4,0.4l-0.4,0.4L73.8,36.7z M73.8,37.7
	l0.4-0.4l0.4,0.4l-0.4,0.4L73.8,37.7z M74.7,38.7l-0.4-0.4l0.4-0.4l0.4,0.4L74.7,38.7z M74.8,37.7l0.4-0.4l0.4,0.4l-0.4,0.4
	L74.8,37.7z M75.7,38.7l-0.4-0.4l0.4-0.4l0.4,0.4L75.7,38.7z M75.8,37.7l0.4-0.4l0.4,0.4l-0.4,0.4L75.8,37.7z M76.7,38.7l-0.4-0.4
	l0.4-0.4l0.4,0.4L76.7,38.7z M76.8,37.7l0.4-0.4l0.4,0.4l-0.4,0.4L76.8,37.7z M77.7,38.7l-0.4-0.4l0.4-0.4l0.4,0.4L77.7,38.7z
	 M77.8,37.7l0.4-0.4l0.4,0.4l-0.4,0.4L77.8,37.7z M78.7,38.7l-0.4-0.4l0.4-0.4l0.4,0.4L78.7,38.7z M78.8,37.7l0.4-0.4l0.4,0.4
	l-0.4,0.4L78.8,37.7z M79.7,38.7l-0.4-0.4l0.4-0.4l0.4,0.4L79.7,38.7z M79.8,37.7l0.4-0.4l0.4,0.4l-0.4,0.4L79.8,37.7z M80.7,38.7
	l-0.4-0.4l0.4-0.4l0.4,0.4L80.7,38.7z M80.8,37.7l0.4-0.4l0.4,0.4l-0.4,0.4L80.8,37.7z M81.7,38.7l-0.4-0.4l0.4-0.4l0.4,0.4
	L81.7,38.7z M81.8,37.7l0.4-0.4l0.4,0.4l-0.4,0.4L81.8,37.7z M82.7,38.7l-0.4-0.4l0.4-0.4l0.4,0.4L82.7,38.7z M82.8,37.7l0.4-0.4
	l0.4,0.4l-0.4,0.4L82.8,37.7z M83.7,38.7l-0.4-0.4l0.4-0.4l0.4,0.4L83.7,38.7z M83.8,37.7l0.4-0.4l0.4,0.4l-0.4,0.4L83.8,37.7z
	 M84.7,38.7l-0.4-0.4l0.4-0.4l0.4,0.4L84.7,38.7z M84.8,37.7l0.4-0.4l0.4,0.4l-0.4,0.4L84.8,37.7z M85.7,38.7l-0.4-0.4l0.4-0.4
	l0.4,0.4L85.7,38.7z M85.8,37.7l0.4-0.4l0.4,0.4l-0.4,0.4L85.8,37.7z M86.7,38.7l-0.4-0.4l0.4-0.4l0.4,0.4L86.7,38.7z M86.8,37.7
	l0.4-0.4l0.4,0.4l-0.4,0.4L86.8,37.7z M87.7,38.7l-0.4-0.4l0.4-0.4l0.4,0.4L87.7,38.7z M87.8,37.7l0.4-0.4l0.4,0.4l-0.4,0.4
	L87.8,37.7z M88.7,38.7l-0.4-0.4l0.4-0.4l0.4,0.4L88.7,38.7z M88.8,37.7l0.4-0.4l0.4,0.4l-0.4,0.4L88.8,37.7z M89.7,38.7l-0.4-0.4
	l0.4-0.4l0.4,0.4L89.7,38.7z M89.8,37.7l0.4-0.4l0.4,0.4l-0.4,0.4L89.8,37.7z M90.7,38.7l-0.4-0.4l0.4-0.4l0.4,0.4L90.7,38.7z
	 M90.8,37.7l0.4-0.4l0.4,0.4l-0.4,0.4L90.8,37.7z M91.7,38.7l-0.4-0.4l0.4-0.4l0.4,0.4L91.7,38.7z M91.8,37.7l0.4-0.4l0.4,0.4
	l-0.4,0.4L91.8,37.7z M92.7,38.7l-0.4-0.4l0.4-0.4l0.4,0.4L92.7,38.7z M92.8,37.7l0.4-0.4l0.4,0.4l-0.4,0.4L92.8,37.7z M93.7,38.7
	l-0.4-0.4l0.4-0.4l0.4,0.4L93.7,38.7z M93.8,37.7l0.4-0.4l0.4,0.4l-0.4,0.4L93.8,37.7z M94.7,38.7l-0.4-0.4l0.4-0.4l0.4,0.4
	L94.7,38.7z M94.8,37.7l0.4-0.4l0.4,0.4l-0.4,0.4L94.8,37.7z M95.7,38.7l-0.4-0.4l0.4-0.4l0.4,0.4L95.7,38.7z M95.8,37.7l0.4-0.4
	l0.4,0.4l-0.4,0.4L95.8,37.7z M96.7,38.7l-0.4-0.4l0.4-0.4l0.4,0.4L96.7,38.7z M96.8,37.7l0.4-0.4l0.4,0.4l-0.4,0.4L96.8,37.7z
	 M97.7,38.7l-0.4-0.4l0.4-0.4l0.4,0.4L97.7,38.7z M98.2,38.2l-0.4-0.4l0.4-0.4l0.4,0.4L98.2,38.2z M98.3,37.2l0.4-0.4l0.4,0.4
	l-0.4,0.4L98.3,37.2z"/>
<linearGradient id="SVGID_12_" gradientUnits="userSpaceOnUse" x1="98.9" y1="454.1102" x2="98.9" y2="454.1102" gradientTransform="matrix(1 0 0 1 0 -418.1102)">
	<stop  offset="0" style="stop-color:#4F4F51"/>
	<stop  offset="0.2693" style="stop-color:#515153"/>
	<stop  offset="0.3663" style="stop-color:#57575A"/>
	<stop  offset="0.4355" style="stop-color:#616264"/>
	<stop  offset="0.4914" style="stop-color:#6E7072"/>
	<stop  offset="0.5393" style="stop-color:#7F8183"/>
	<stop  offset="0.5809" style="stop-color:#939597"/>
	<stop  offset="0.6129" style="stop-color:#A7A9AC"/>
	<stop  offset="0.6871" style="stop-color:#8E9092"/>
	<stop  offset="0.8343" style="stop-color:#606163"/>
	<stop  offset="0.9428" style="stop-color:#3D3C3E"/>
	<stop  offset="1" style="stop-color:#1E1E1F"/>
</linearGradient>
<path class="st14" d="M98.9,36L98.9,36L98.9,36z"/>
<linearGradient id="SVGID_13_" gradientUnits="userSpaceOnUse" x1="83.3357" y1="440.2474" x2="90.0237" y2="446.1224" gradientTransform="matrix(1 0 0 1 0 -418.1102)">
	<stop  offset="0" style="stop-color:#222223"/>
	<stop  offset="0.4812" style="stop-color:#272728"/>
	<stop  offset="0.6546" style="stop-color:#353536"/>
	<stop  offset="0.7781" style="stop-color:#464647"/>
	<stop  offset="0.878" style="stop-color:#555658"/>
	<stop  offset="0.9626" style="stop-color:#67696B"/>
	<stop  offset="1" style="stop-color:#717375"/>
</linearGradient>
<path class="st15" d="M89.5,24.9c0-1.6-1.3-3-3-3s-3,1.3-3,3s1.3,3,3,3S89.5,26.5,89.5,24.9"/>
<radialGradient id="SVGID_14_" cx="87.146" cy="443.0902" r="2.0836" gradientTransform="matrix(1 0 0 1 0 -418.1102)" gradientUnits="userSpaceOnUse">
	<stop  offset="0" style="stop-color:#00062F"/>
	<stop  offset="0.2232" style="stop-color:#000830"/>
	<stop  offset="0.4278" style="stop-color:#000F34"/>
	<stop  offset="0.6249" style="stop-color:#00173B"/>
	<stop  offset="0.8164" style="stop-color:#012143"/>
	<stop  offset="1" style="stop-color:#212D4E"/>
</radialGradient>
<path class="st16" d="M87.9,24.9c0-0.7-0.6-1.3-1.3-1.3c-0.7,0-1.3,0.6-1.3,1.3l0,0c0,0.7,0.6,1.3,1.3,1.3S87.9,25.6,87.9,24.9"/>
<radialGradient id="SVGID_15_" cx="86.082" cy="443.4792" r="0.4952" gradientTransform="matrix(1 0 0 1 0 -418.1102)" gradientUnits="userSpaceOnUse">
	<stop  offset="0" style="stop-color:#39BCED"/>
	<stop  offset="0.3637" style="stop-color:#0076A4"/>
	<stop  offset="1" style="stop-color:#00062F"/>
</radialGradient>
<path class="st17" d="M86.3,25.3c0-0.2-0.1-0.3-0.3-0.3c-0.2,0-0.3,0.1-0.3,0.3l0,0c0,0.2,0.1,0.3,0.3,0.3
	C86.1,25.7,86.3,25.5,86.3,25.3"/>
<radialGradient id="SVGID_16_" cx="87.688" cy="442.4222" r="0.8706" gradientTransform="matrix(1 0 0 1 0 -418.1102)" gradientUnits="userSpaceOnUse">
	<stop  offset="0" style="stop-color:#39BCED"/>
	<stop  offset="0.3637" style="stop-color:#0076A4"/>
	<stop  offset="1" style="stop-color:#00062F"/>
</radialGradient>
<path class="st18" d="M87.6,24.4c0-0.2-0.1-0.3-0.3-0.3c-0.2,0-0.3,0.1-0.3,0.3s0.1,0.3,0.3,0.3C87.5,24.7,87.6,24.6,87.6,24.4"/>
<radialGradient id="SVGID_17_" cx="86.364" cy="442.4612" r="0.7308" gradientTransform="matrix(1 0 0 1 0 -418.1102)" gradientUnits="userSpaceOnUse">
	<stop  offset="0" style="stop-color:#24132E"/>
	<stop  offset="0.3463" style="stop-color:#261732"/>
	<stop  offset="0.6634" style="stop-color:#2E213B"/>
	<stop  offset="0.9683" style="stop-color:#3A2F4A"/>
	<stop  offset="1" style="stop-color:#3B304C"/>
</radialGradient>
<path class="st19" d="M86.6,24.3c0-0.3-0.2-0.5-0.5-0.5s-0.5,0.2-0.5,0.5s0.2,0.5,0.5,0.5S86.6,24.6,86.6,24.3"/>
<path class="st20" d="M154.7,292.3c0,1.1-0.9,2-2,2H20.2c-1.1,0-2-0.9-2-2V56c0-1.1,0.9-2,2-2h132.5c1.1,0,2,0.9,2,2V292.3z"/>
<path class="st21" d="M20,56.2h133v236.7H20V56.2z"/>
<linearGradient id="SVGID_18_" gradientUnits="userSpaceOnUse" x1="117.9" y1="430.6102" x2="117.9" y2="678.9402" gradientTransform="matrix(1 0 0 1 0 -418.1102)">
	<stop  offset="0" style="stop-color:#FFFFFF;stop-opacity:0.5"/>
	<stop  offset="0.1235" style="stop-color:#FFFFFF;stop-opacity:0.4382"/>
	<stop  offset="1" style="stop-color:#FFFFFF;stop-opacity:0"/>
</linearGradient>
<path class="st22" d="M160.9,32.5c0-11-9-20-20-20h-66l7.5,21.6H98c1.8,0,3.3,1.5,3.3,3.3s-1.5,3.3-3.3,3.3H84.6l76.3,221V32.5
	L160.9,32.5z M86.6,27.8c-1.6,0-3-1.3-3-3s1.3-3,3-3s3,1.3,3,3S88.2,27.8,86.6,27.8z"/>
<path d="M100.4,315.1c0-8.1-6.6-14.7-14.7-14.7S71,307,71,315.1l0,0c0,8.1,6.6,14.7,14.7,14.7S100.4,323.2,100.4,315.1L100.4,315.1"
	/>
<radialGradient id="SVGID_19_" cx="85.626" cy="718.5502" r="18.875" gradientTransform="matrix(1 0 0 1 0 -418.1102)" gradientUnits="userSpaceOnUse">
	<stop  offset="0" style="stop-color:#FFFFFF;stop-opacity:0.5"/>
	<stop  offset="0.1235" style="stop-color:#FFFFFF;stop-opacity:0.4382"/>
	<stop  offset="1" style="stop-color:#FFFFFF;stop-opacity:0"/>
</radialGradient>
<path class="st23" d="M85.7,300.7c8.1,0,14.6,6.5,14.7,14.6c0-0.1,0-0.1,0-0.2c0-8.1-6.6-14.7-14.7-14.7S71,307,71,315.1
	c0,0.1,0,0.1,0,0.2C71.1,307.2,77.6,300.7,85.7,300.7z"/>
<radialGradient id="SVGID_20_" cx="81.792" cy="727.9402" r="13.316" gradientTransform="matrix(1 0 0 1 0 -418.1102)" gradientUnits="userSpaceOnUse">
	<stop  offset="0" style="stop-color:#ABADB0"/>
	<stop  offset="0.1017" style="stop-color:#9FA1A3"/>
	<stop  offset="0.2907" style="stop-color:#8D8F91"/>
	<stop  offset="0.493" style="stop-color:#808285"/>
	<stop  offset="0.7161" style="stop-color:#797B7D"/>
	<stop  offset="1" style="stop-color:#77787B"/>
</radialGradient>
<path class="st24" d="M88.3,320.6H83c-1.7,0-3-1.3-3-3v-5.2c0-1.7,1.3-3,3-3h5.3c1.7,0,3,1.3,3,3v5.2
	C91.3,319.2,90,320.6,88.3,320.6z M83,310.4c-1.1,0-2,0.9-2,2v5.2c0,1.1,0.9,2,2,2h5.3c1.1,0,2-0.9,2-2v-5.2c0-1.1-0.9-2-2-2H83z"/>
<linearGradient id="SVGID_21_" gradientUnits="userSpaceOnUse" x1="85.7" y1="751.7802" x2="85.7" y2="716.4302" gradientTransform="matrix(1 0 0 1 0 -418.1102)">
	<stop  offset="0" style="stop-color:#FFFFFF;stop-opacity:0.5"/>
	<stop  offset="0.1235" style="stop-color:#FFFFFF;stop-opacity:0.4382"/>
	<stop  offset="1" style="stop-color:#FFFFFF;stop-opacity:0"/>
</linearGradient>
<path class="st25" d="M85.7,316.4c-5.4,0-10.5-0.4-14.7-1c0.1,8,6.7,14.4,14.7,14.4s14.5-6.4,14.7-14.4
	C96.2,316,91.1,316.4,85.7,316.4z"/>
<rect x="20" y="56.2" class="st26" width="133" height="236.7"/>
<image style="overflow:visible;enable-background:new    ;" width="1200" height="1200" xlink:href="—Pngtree—girls learn at the study_5374335.png"  transform="matrix(6.327118e-02 0 0 6.327118e-02 74.667 105.0708)">
</image>
<image style="overflow:visible;enable-background:new    ;" width="766" height="94" xlink:href="a.png"  transform="matrix(0.1775 0 0 0.1785 17.7951 51.2216)">
</image>
<g>
	<g>
		<path class="st21" d="M31,79.9h3.1l-0.3,1.2h-1.6l-0.4,1.7h1.5L33,84h-1.5l-0.7,3.3h-1.4L31,79.9z"/>
		<path class="st21" d="M36.1,79.9l-1.6,7.5h-1.4l1.6-7.5H36.1z"/>
		<path class="st21" d="M35.5,87.4l1.6-7.5h1.6c0,2.2,0,4.7-0.1,5l0,0c0.1-1,0.4-2.8,0.6-3.8l0.3-1.2h1.3l-1.6,7.5h-1.6
			c0-2,0-4.8,0.1-5.1l0,0c-0.1,0.9-0.4,2.6-0.6,3.8l-0.3,1.3C36.8,87.4,35.5,87.4,35.5,87.4z"/>
		<path class="st21" d="M41.8,79.9h1.6c1.6,0,2,0.9,1.6,2.5l-0.6,2.9c-0.3,1.3-0.7,2.1-2.2,2.1h-2L41.8,79.9z M41.8,86.3h0.3
			c0.5,0,0.7-0.3,0.8-0.9l0.7-3.5c0.1-0.5,0.1-0.9-0.5-0.9h-0.3L41.8,86.3z"/>
		<path class="st21" d="M47.7,87.4l0.5-2.4c0-0.1,0-0.3,0-0.4L47.9,80h1.4c0,0.9,0,2.5-0.1,3.2l0,0c0.3-0.8,0.8-2.2,1.3-3.2H52
			l-2.4,4.8c0,0.1-0.1,0.2-0.1,0.3L49,87.4C49,87.4,47.7,87.4,47.7,87.4z"/>
		<path class="st21" d="M55.7,82.1L55,85.5c-0.3,1.4-0.8,2-2.2,2s-1.9-0.8-1.6-2.2l0.8-3.6c0.3-1.4,1-1.9,2.1-1.9
			C55.4,79.8,56,80.6,55.7,82.1z M53.4,81.7l-0.8,3.9c-0.1,0.4-0.1,0.8,0.3,0.8c0.3,0,0.5-0.3,0.6-0.7l0.8-3.9
			c0.1-0.4,0-0.7-0.4-0.7C53.7,81,53.5,81.2,53.4,81.7z"/>
		<path class="st21" d="M58.4,79.9l-1.2,5.7c-0.1,0.4,0,0.6,0.3,0.6c0.4,0,0.5-0.3,0.5-0.6l1.2-5.7h1.4l-1.2,5.6
			c-0.3,1.3-0.6,2-2.2,2c-1.3,0-1.8-0.7-1.6-2l1.2-5.5L58.4,79.9L58.4,79.9z"/>
		<path class="st21" d="M62.1,84.2l-0.7,3.2H60l1.6-7.5h1.7c1.2,0,1.8,0.7,1.5,1.9l-0.1,0.4c-0.2,0.9-0.6,1.2-1,1.3
			c0.3,0.2,0.5,0.6,0.3,1.7c-0.2,0.7-0.4,1.6-0.4,2h-1.4c0-0.3,0.1-1.1,0.4-2.3c0.2-0.7,0.1-0.9-0.4-0.9h-0.1V84.2z M62.3,83.1h0.2
			c0.5,0,0.7-0.2,0.8-0.8l0.1-0.5c0.1-0.5,0-0.7-0.4-0.7h-0.2L62.3,83.1z"/>
		<path class="st21" d="M70.1,84.1h-1.5l-0.4,2.1H70l-0.4,1.2h-3.1l1.6-7.5h3l-0.3,1.2h-1.6l-0.4,1.7h1.5L70.1,84.1z"/>
		<path class="st21" d="M72.4,87.4c0-0.3-0.1-2.3,0-2.6l0,0c-0.1,0.2-1,2.4-1.1,2.6h-1.4l1.9-3.9L71.5,80h1.4c0,0.2,0,2.1,0,2.3l0,0
			c0.1-0.2,0.9-2.1,0.9-2.3h1.4l-1.8,3.6l0.3,3.9L72.4,87.4L72.4,87.4z"/>
		<path class="st21" d="M75.9,85.6l-0.6,1.8h-1.5l2.6-7.5h2.2L78,87.4h-1.4l0.2-1.8H75.9z M77,84.4c0.1-0.9,0.2-2.5,0.3-3.2h-0.1
			c-0.1,0.6-0.6,2.2-0.9,3.2H77z"/>
		<path class="st21" d="M82.9,85c0.2-1.2,0.6-2.7,0.8-3.6l0,0c-0.5,1.5-1.4,4.5-1.9,6h-1.2c0.2-1.6,0.5-4.6,0.7-6l0,0
			c-0.2,0.9-0.5,2.4-0.8,3.7L80,87.4h-1.3l1.6-7.5h2c-0.2,1.6-0.3,3.3-0.5,4.4l0,0c0.3-1.1,1-2.9,1.5-4.4h2l-1.6,7.5h-1.4L82.9,85z"
			/>
		<path class="st21" d="M91.6,82.1l-0.7,3.4c-0.3,1.4-0.8,2-2.2,2c-1.4,0-1.9-0.8-1.6-2.2l0.8-3.6c0.3-1.4,1-1.9,2.1-1.9
			C91.3,79.8,91.9,80.6,91.6,82.1z M89.3,81.7l-0.8,3.9c-0.1,0.4-0.1,0.8,0.3,0.8c0.3,0,0.5-0.3,0.6-0.7l0.8-3.9
			c0.1-0.4,0-0.7-0.4-0.7C89.6,81,89.4,81.2,89.3,81.7z"/>
		<path class="st21" d="M91.3,87.4l1.6-7.5h1.6c0,2.2,0,4.7-0.1,5l0,0c0.1-1,0.4-2.8,0.6-3.8l0.3-1.2h1.3L95,87.4h-1.6
			c0-2,0-4.8,0.1-5.1l0,0c-0.1,0.9-0.4,2.6-0.6,3.8l-0.3,1.3C92.6,87.4,91.3,87.4,91.3,87.4z"/>
		<path class="st21" d="M98.9,87.4l0.5-2.4c0-0.1,0-0.3,0-0.4L99.1,80h1.4c0,0.9,0,2.5-0.1,3.2l0,0c0.3-0.8,0.8-2.2,1.3-3.2h1.5
			l-2.4,4.8c0,0.1-0.1,0.2-0.1,0.3l-0.5,2.3C100.2,87.4,98.9,87.4,98.9,87.4z"/>
		<path class="st21" d="M106.9,82.1l-0.7,3.4c-0.3,1.4-0.8,2-2.2,2c-1.4,0-1.9-0.8-1.6-2.2l0.8-3.6c0.3-1.4,1-1.9,2.1-1.9
			C106.6,79.8,107.3,80.6,106.9,82.1z M104.7,81.7l-0.8,3.9c-0.1,0.4-0.1,0.8,0.3,0.8c0.3,0,0.5-0.3,0.6-0.7l0.8-3.9
			c0.1-0.4,0-0.7-0.4-0.7C104.9,81,104.8,81.2,104.7,81.7z"/>
		<path class="st21" d="M109.6,79.9l-1.2,5.7c-0.1,0.4,0,0.6,0.3,0.6c0.4,0,0.5-0.3,0.6-0.6l1.2-5.7h1.4l-1.2,5.6
			c-0.3,1.3-0.6,2-2.2,2c-1.3,0-1.8-0.7-1.6-2l1.2-5.5L109.6,79.9L109.6,79.9z"/>
		<path class="st21" d="M113.3,84.2l-0.7,3.2h-1.4l1.6-7.5h1.7c1.2,0,1.8,0.7,1.5,1.9l-0.1,0.4c-0.2,0.9-0.6,1.2-1,1.3
			c0.3,0.2,0.5,0.6,0.3,1.7c-0.2,0.7-0.4,1.6-0.4,2h-1.4c0-0.3,0.2-1.1,0.4-2.3c0.2-0.7,0.1-0.9-0.4-0.9h-0.1V84.2z M113.6,83.1h0.2
			c0.5,0,0.7-0.2,0.8-0.8l0.1-0.5c0.1-0.5,0-0.7-0.4-0.7H114L113.6,83.1z"/>
		<path class="st21" d="M119.3,79.9h1.7c1.4,0,1.8,0.8,1.6,2.1l-0.1,0.6c-0.2,1.2-0.7,1.8-2.2,1.8h-0.5l-0.6,3h-1.4L119.3,79.9z
			 M120,83.3h0.3c0.5,0,0.6-0.2,0.7-0.7l0.1-0.6c0.1-0.5,0.1-0.8-0.4-0.8h-0.3L120,83.3z"/>
		<path class="st21" d="M123.7,79.9h1.4l-0.6,2.9h0.9l0.6-2.9h1.4l-1.6,7.5h-1.4l0.7-3.3h-0.9l-0.7,3.3h-1.4L123.7,79.9z"/>
		<path class="st21" d="M131.6,82.1l-0.7,3.4c-0.3,1.4-0.8,2-2.2,2c-1.4,0-1.9-0.8-1.6-2.2l0.8-3.6c0.3-1.4,1-1.9,2.1-1.9
			C131.3,79.8,131.9,80.6,131.6,82.1z M129.3,81.7l-0.8,3.9c-0.1,0.4-0.1,0.8,0.3,0.8c0.3,0,0.5-0.3,0.6-0.7l0.8-3.9
			c0.1-0.4,0-0.7-0.4-0.7C129.6,81,129.4,81.2,129.3,81.7z"/>
		<path class="st21" d="M131.3,87.4l1.6-7.5h1.6c0,2.2,0,4.7-0.1,5l0,0c0.1-1,0.4-2.8,0.6-3.8l0.3-1.2h1.3l-1.6,7.5h-1.6
			c0-2,0-4.8,0.1-5.1l0,0c-0.1,0.9-0.4,2.6-0.6,3.8l-0.3,1.3C132.6,87.4,131.3,87.4,131.3,87.4z"/>
		<path class="st21" d="M139.7,84.1h-1.5l-0.4,2.1h1.9l-0.4,1.2H136l1.6-7.5h3l-0.3,1.2h-1.6l-0.4,1.7h1.5L139.7,84.1z"/>
	</g>
</g>
<g>
	<g>
		<path class="st27" d="M30.3,135.9v0.2c-0.1,0.3,0,0.4,0.2,0.4s0.3-0.1,0.3-0.4c0.1-0.3,0-0.6-0.3-1c-0.4-0.5-0.6-0.8-0.5-1.4
			c0.1-0.6,0.5-0.9,1-0.9c0.9,0,1,0.6,0.9,1.2v0.1h-0.8v-0.2c0.1-0.3,0-0.5-0.1-0.5s-0.2,0.1-0.3,0.3c-0.1,0.3,0,0.4,0.3,0.8
			c0.6,0.7,0.7,1,0.6,1.6c-0.1,0.7-0.5,1-1.2,1c-0.8,0-1-0.5-0.9-1.2v-0.1L30.3,135.9L30.3,135.9z"/>
		<path class="st27" d="M32.8,133.6h-0.6l0.1-0.7h2l-0.1,0.7h-0.6l-0.7,3.5h-0.8L32.8,133.6z"/>
		<path class="st27" d="M35.5,132.9l-0.7,3.2c0,0.2,0,0.4,0.2,0.4s0.3-0.1,0.3-0.4l0.7-3.2h0.8l-0.7,3.1c-0.2,0.7-0.4,1.1-1.2,1.1
			s-1-0.4-0.9-1.1l0.7-3.1H35.5z"/>
		<path class="st27" d="M37.3,132.9h0.9c0.9,0,1.1,0.5,0.9,1.4l-0.3,1.6c-0.2,0.7-0.4,1.2-1.2,1.2h-1.1L37.3,132.9z M37.3,136.5h0.2
			c0.3,0,0.4-0.2,0.5-0.5l0.4-2c0.1-0.3,0.1-0.5-0.3-0.5H38L37.3,136.5z"/>
		<path class="st27" d="M39.4,137.1l0.3-1.3c0-0.1,0-0.2,0-0.2l-0.2-2.6h0.8c0,0.5,0,1.4,0,1.8l0,0c0.2-0.4,0.5-1.2,0.7-1.8h0.8
			l-1.3,2.7c0,0.1,0,0.1-0.1,0.2l-0.3,1.3L39.4,137.1L39.4,137.1z"/>
		<path class="st27" d="M43.3,135.9v0.2c-0.1,0.3,0,0.4,0.2,0.4s0.3-0.1,0.3-0.4c0.1-0.3,0-0.6-0.3-1c-0.4-0.5-0.6-0.8-0.5-1.4
			c0.1-0.6,0.5-0.9,1-0.9c0.9,0,1,0.6,0.9,1.2v0.1h-0.8v-0.2c0.1-0.3,0-0.5-0.1-0.5s-0.2,0.1-0.3,0.3c-0.1,0.3,0,0.4,0.3,0.8
			c0.6,0.7,0.7,1,0.6,1.6c-0.1,0.7-0.5,1-1.2,1c-0.8,0-1-0.5-0.9-1.2v-0.1L43.3,135.9L43.3,135.9z"/>
		<path class="st27" d="M47.1,135.8c0.1-0.7,0.3-1.5,0.5-2l0,0c-0.3,0.8-0.8,2.5-1.1,3.4h-0.7c0.1-0.9,0.3-2.6,0.4-3.4l0,0
			c-0.1,0.5-0.3,1.4-0.4,2.1l-0.3,1.3h-0.7l0.9-4.2h1.2c-0.1,0.9-0.2,1.9-0.3,2.5l0,0c0.2-0.6,0.5-1.6,0.8-2.5h1.2l-0.9,4.2h-0.8
			L47.1,135.8z"/>
		<path class="st27" d="M49.1,136.1l-0.3,1H48l1.5-4.2h1.2l-0.3,4.2h-0.8l0.1-1H49.1z M49.7,135.4c0.1-0.5,0.1-1.4,0.2-1.8l0,0
			c-0.1,0.3-0.3,1.2-0.5,1.8H49.7z"/>
		<path class="st27" d="M51.8,135.3l-0.4,1.8h-0.8l0.9-4.2h1c0.7,0,1,0.4,0.9,1.1l-0.1,0.2c-0.1,0.5-0.3,0.7-0.6,0.8
			c0.2,0.1,0.3,0.3,0.2,1c-0.1,0.4-0.2,0.9-0.2,1.1h-0.8c0-0.2,0.1-0.6,0.2-1.3c0.1-0.4,0-0.5-0.2-0.5L51.8,135.3L51.8,135.3z
			 M51.9,134.7L51.9,134.7c0.4,0,0.5-0.1,0.6-0.5v-0.3c0.1-0.3,0-0.4-0.2-0.4h-0.1L51.9,134.7z"/>
		<path class="st27" d="M54.2,133.6h-0.6l0.1-0.7h2l-0.1,0.7H55l-0.7,3.5h-0.8L54.2,133.6z"/>
		<path class="st27" d="M57.3,136.1l-0.3,1h-0.8l1.5-4.2h1.2l-0.3,4.2h-0.8l0.1-1H57.3z M57.9,135.4c0.1-0.5,0.1-1.4,0.2-1.8l0,0
			c-0.1,0.3-0.3,1.2-0.5,1.8H57.9z"/>
		<path class="st27" d="M58.8,137.1l0.9-4.2h0.9c0,1.3,0,2.7,0,2.8l0,0c0.1-0.6,0.2-1.6,0.3-2.1l0.1-0.7h0.7l-0.9,4.2H60
			c0-1.1,0-2.7,0-2.9l0,0c-0.1,0.5-0.2,1.5-0.4,2.1l-0.1,0.7L58.8,137.1L58.8,137.1z"/>
		<path class="st27" d="M62.4,132.9h0.9c0.9,0,1.1,0.5,0.9,1.4l-0.3,1.6c-0.2,0.7-0.4,1.2-1.2,1.2h-1.1L62.4,132.9z M62.4,136.5h0.2
			c0.3,0,0.4-0.2,0.5-0.5l0.4-2c0.1-0.3,0.1-0.5-0.3-0.5H63L62.4,136.5z"/>
		<path class="st27" d="M67.2,132.9h0.9c0.9,0,1.1,0.5,0.9,1.4l-0.3,1.6c-0.2,0.7-0.4,1.2-1.2,1.2h-1.1L67.2,132.9z M67.2,136.5h0.2
			c0.3,0,0.4-0.2,0.5-0.5l0.4-2c0.1-0.3,0.1-0.5-0.3-0.5h-0.1L67.2,136.5z"/>
		<path class="st27" d="M71.6,134.1l-0.4,1.9c-0.2,0.8-0.4,1.1-1.2,1.1c-0.8,0-1-0.5-0.9-1.2l0.4-2.1c0.2-0.8,0.6-1,1.2-1
			C71.4,132.9,71.8,133.3,71.6,134.1z M70.3,133.9l-0.5,2.2c0,0.2,0,0.4,0.2,0.4s0.3-0.2,0.3-0.4l0.5-2.2c0.1-0.2,0-0.4-0.2-0.4
			C70.5,133.5,70.4,133.6,70.3,133.9z"/>
		<path class="st27" d="M71.4,137.1l0.9-4.2h0.9c0,1.3,0,2.7,0,2.8l0,0c0.1-0.6,0.2-1.6,0.3-2.1l0.1-0.7h0.7l-0.9,4.2h-0.9
			c0-1.1,0-2.7,0-2.9l0,0c-0.1,0.5-0.2,1.5-0.4,2.1L72,137L71.4,137.1L71.4,137.1z"/>
		<path class="st27" d="M74.7,133.1c0.3-0.6,0.7-1.5,0.9-2.2h1c-0.3,0.9-0.7,1.7-1,2.2H74.7z"/>
		<path class="st27" d="M77.1,133.6h-0.6l0.1-0.7h2l-0.1,0.7h-0.6l-0.7,3.5h-0.8L77.1,133.6z"/>
		<path class="st27" d="M29.7,148.1l0.4-4.2h0.8c-0.1,0.8-0.3,2.2-0.5,2.9l0,0c0.3-0.8,0.6-2,0.9-2.9H32c-0.1,0.8-0.3,2.1-0.4,2.9
			l0,0c0.2-0.8,0.6-2.2,0.8-2.9h0.8l-1.4,4.2H31c0.1-0.7,0.1-1.5,0.2-2.3l0,0c-0.3,0.9-0.5,1.6-0.8,2.3H29.7z"/>
		<path class="st27" d="M33.7,147.1l-0.3,1h-0.8l1.5-4.2h1.2l-0.3,4.2h-0.8l0.1-1H33.7z M34.3,146.4c0.1-0.5,0.1-1.4,0.2-1.8l0,0
			c-0.1,0.3-0.3,1.2-0.5,1.8H34.3z"/>
		<path class="st27" d="M36.1,146.9v0.2c-0.1,0.3,0,0.4,0.2,0.4s0.3-0.1,0.3-0.4c0.1-0.3,0-0.6-0.3-1c-0.4-0.5-0.6-0.8-0.5-1.4
			c0.1-0.6,0.5-0.9,1-0.9c0.9,0,1,0.6,0.9,1.2v0.1h-0.8v-0.2c0.1-0.3,0-0.5-0.1-0.5s-0.2,0.1-0.3,0.3c-0.1,0.3,0,0.4,0.3,0.8
			c0.6,0.7,0.7,1,0.6,1.6c-0.1,0.7-0.5,1-1.2,1c-0.8,0-1-0.5-0.9-1.2v-0.1L36.1,146.9L36.1,146.9z"/>
		<path class="st27" d="M38.7,144.6h-0.6l0.1-0.7h2l-0.1,0.7h-0.6l-0.7,3.5H38L38.7,144.6z"/>
		<path class="st27" d="M41.7,146.2h-0.9l-0.2,1.2h1l-0.2,0.7h-1.8l0.9-4.2h1.7l-0.1,0.7h-0.9l-0.2,0.9h0.9L41.7,146.2z"/>
		<path class="st27" d="M44.5,148.1l0.3-1.3c0-0.1,0-0.2,0-0.2l-0.2-2.6h0.8c0,0.5,0,1.4,0,1.8l0,0c0.2-0.4,0.5-1.2,0.7-1.8H47
			l-1.3,2.7c0,0.1,0,0.1-0.1,0.2l-0.3,1.3L44.5,148.1L44.5,148.1z"/>
		<path class="st27" d="M49.1,145.1l-0.4,1.9c-0.2,0.8-0.4,1.1-1.2,1.1s-1-0.5-0.9-1.2l0.4-2.1c0.2-0.8,0.6-1,1.2-1
			C48.9,143.9,49.2,144.3,49.1,145.1z M47.8,144.9l-0.5,2.2c0,0.2,0,0.4,0.2,0.4s0.3-0.2,0.3-0.4l0.5-2.2c0.1-0.2,0-0.4-0.2-0.4
			C47.9,144.5,47.8,144.6,47.8,144.9z"/>
		<path class="st27" d="M50.6,143.9l-0.7,3.2c0,0.2,0,0.4,0.2,0.4s0.3-0.1,0.3-0.4l0.7-3.2h0.8l-0.7,3.1c-0.2,0.7-0.4,1.1-1.2,1.1
			s-1-0.4-0.9-1.1l0.7-3.1H50.6z"/>
		<path class="st27" d="M52.7,146.3l-0.4,1.8h-0.8l0.9-4.2h1c0.7,0,1,0.4,0.9,1.1l-0.1,0.2c-0.1,0.5-0.3,0.7-0.6,0.8
			c0.2,0.1,0.3,0.3,0.2,1c-0.1,0.4-0.2,0.9-0.2,1.1h-0.8c0-0.2,0.1-0.6,0.2-1.3c0.1-0.4,0-0.5-0.2-0.5L52.7,146.3L52.7,146.3z
			 M52.8,145.7L52.8,145.7c0.4,0,0.5-0.1,0.6-0.5v-0.3c0.1-0.3,0-0.4-0.2-0.4H53L52.8,145.7z"/>
		<path class="st27" d="M56.2,144.6h-0.6l0.1-0.7h2l-0.1,0.7H57l-0.7,3.5h-0.8L56.2,144.6z"/>
		<path class="st27" d="M58.9,143.9l-0.9,4.2h-0.8l0.9-4.2H58.9z"/>
		<path class="st27" d="M60.9,146.8c0.1-0.7,0.3-1.5,0.5-2l0,0c-0.3,0.8-0.8,2.5-1.1,3.4h-0.7c0.1-0.9,0.3-2.6,0.4-3.4l0,0
			c-0.1,0.5-0.3,1.4-0.4,2.1l-0.3,1.3h-0.7l0.9-4.2h1.2c-0.1,0.9-0.2,1.9-0.3,2.5l0,0c0.2-0.6,0.5-1.6,0.8-2.5h1.2l-0.9,4.2h-0.8
			L60.9,146.8z"/>
		<path class="st27" d="M64,146.2h-0.9l-0.2,1.2h1l-0.2,0.7h-1.8l0.9-4.2h1.7l-0.1,0.7h-0.9l-0.2,0.9h0.9L64,146.2z"/>
	</g>
</g>
<g>
	<g>
		<path class="st28" d="M33,188.5l-0.5,2.6c-0.2,1-0.6,1.5-1.6,1.5s-1.4-0.6-1.2-1.6l0.6-2.7c0.2-1,0.8-1.4,1.6-1.4
			C32.7,186.8,33.2,187.4,33,188.5z M31.3,188.2l-0.6,3c-0.1,0.3,0,0.6,0.3,0.6s0.4-0.2,0.4-0.5l0.6-3c0.1-0.3,0-0.5-0.3-0.5
			C31.5,187.7,31.3,187.8,31.3,188.2z"/>
		<path class="st28" d="M35,186.9l-0.9,4.3c-0.1,0.3,0,0.5,0.2,0.5c0.3,0,0.4-0.2,0.4-0.5l0.9-4.3h1.1l-0.9,4.2
			c-0.2,0.9-0.5,1.5-1.6,1.5c-1,0-1.4-0.5-1.2-1.5l0.9-4.2H35z"/>
		<path class="st28" d="M37.7,190.1l-0.5,2.4h-1.1l1.2-5.6h1.3c0.9,0,1.4,0.5,1.2,1.5l-0.1,0.3c-0.1,0.7-0.4,0.9-0.7,1
			c0.2,0.2,0.4,0.4,0.2,1.3c-0.1,0.5-0.3,1.2-0.3,1.5h-1c0-0.3,0.1-0.8,0.3-1.7c0.1-0.6,0.1-0.7-0.3-0.7H37.7z M37.9,189.2
			L37.9,189.2c0.5,0,0.6-0.1,0.7-0.6l0.1-0.3c0.1-0.4,0-0.6-0.3-0.6h-0.2L37.9,189.2z"/>
		<path class="st28" d="M42.3,191.1l-0.4,1.4h-1.1l1.9-5.6h1.6l-0.4,5.6h-1.1l0.1-1.4H42.3z M43.1,190.2c0.1-0.7,0.2-1.8,0.2-2.4
			l0,0c-0.1,0.4-0.5,1.6-0.7,2.4H43.1z"/>
		<path class="st28" d="M44.9,192.5l0.4-5.6h1.1l-0.2,2c-0.1,0.7-0.2,1.8-0.3,2.5l0,0c0.2-0.7,0.5-1.7,0.7-2.5l0.6-2h1.1l-2,5.6
			H44.9z"/>
		<path class="st28" d="M48.8,191.1l-0.4,1.4h-1.1l1.9-5.6h1.6l-0.4,5.6h-1.1l0.1-1.4H48.8z M49.6,190.2c0.1-0.7,0.2-1.8,0.2-2.4
			l0,0c-0.1,0.4-0.5,1.6-0.7,2.4H49.6z"/>
		<path class="st28" d="M53,186.9l-1.2,5.6h-1.1l1.2-5.6H53z"/>
		<path class="st28" d="M53.7,186.9h1.1l-1,4.7h1.3l-0.3,0.9h-2.3L53.7,186.9z"/>
		<path class="st28" d="M56.6,191.1l-0.4,1.4h-1.1l1.9-5.6h1.6l-0.4,5.6h-1.1l0.1-1.4H56.6z M57.4,190.2c0.1-0.7,0.2-1.8,0.2-2.4
			l0,0c-0.1,0.4-0.5,1.6-0.7,2.4H57.4z"/>
		<path class="st28" d="M59.8,186.9h1.3c0.9,0,1.3,0.5,1.1,1.4l-0.1,0.3c-0.1,0.6-0.4,0.9-0.8,1c0.4,0.2,0.5,0.5,0.4,1.1l-0.1,0.4
			c-0.2,1-0.6,1.4-1.7,1.4h-1.5L59.8,186.9z M59.8,191.7h0.3c0.4,0,0.5-0.2,0.6-0.6l0.1-0.5c0.1-0.4,0-0.6-0.4-0.6h-0.2L59.8,191.7z
			 M60.6,189.1c0.3,0,0.4-0.1,0.5-0.6l0.1-0.3c0.1-0.3,0-0.5-0.4-0.5h-0.2l-0.3,1.4L60.6,189.1L60.6,189.1z"/>
		<path class="st28" d="M63.2,186.9h1.1l-1,4.7h1.3l-0.3,0.9H62L63.2,186.9z"/>
		<path class="st28" d="M67.5,190h-1.2l-0.3,1.6h1.4l-0.3,0.9h-2.3l1.2-5.6h2.3l-0.2,0.9h-1.2l-0.3,1.3h1.2L67.5,190z"/>
		<path class="st28" d="M71.4,186.9l-0.9,4.3c-0.1,0.3,0,0.5,0.2,0.5c0.3,0,0.4-0.2,0.4-0.5l0.9-4.3h1.1l-0.9,4.2
			c-0.2,0.9-0.5,1.5-1.6,1.5c-1,0-1.4-0.5-1.2-1.5l0.9-4.2H71.4z"/>
		<path class="st28" d="M72.6,192.5l1.2-5.6H75c0,1.7,0,3.5,0,3.8l0,0c0.1-0.8,0.3-2.1,0.5-2.9l0.2-0.9h1l-1.2,5.6h-1.2
			c0-1.5,0-3.6,0-3.8l0,0c-0.1,0.7-0.3,2-0.5,2.9l-0.2,1h-1V192.5z"/>
		<path class="st28" d="M78.4,186.9l-1.2,5.6h-1.1l1.2-5.6H78.4z"/>
		<path class="st28" d="M78.4,192.5l0.4-5.6h1.1l-0.2,2c-0.1,0.7-0.2,1.8-0.3,2.5l0,0c0.2-0.7,0.5-1.7,0.7-2.5l0.6-2h1.1l-2,5.6
			H78.4z"/>
		<path class="st28" d="M83.8,190h-1.2l-0.3,1.6h1.4l-0.3,0.9H81l1.2-5.6h2.3l-0.2,0.9h-1.2l-0.3,1.3H84L83.8,190z"/>
		<path class="st28" d="M85.4,190.1l-0.5,2.4h-1.1l1.2-5.6h1.3c0.9,0,1.4,0.5,1.2,1.5l-0.1,0.3c-0.1,0.7-0.4,0.9-0.7,1
			c0.2,0.2,0.4,0.4,0.2,1.3c-0.1,0.5-0.3,1.2-0.3,1.5h-1c0-0.3,0.1-0.8,0.3-1.7c0.1-0.6,0.1-0.7-0.3-0.7H85.4z M85.6,189.2
			L85.6,189.2c0.5,0,0.6-0.1,0.7-0.6l0.1-0.3c0.1-0.4,0-0.6-0.3-0.6h-0.2L85.6,189.2z"/>
		<path class="st28" d="M88.4,190.9l-0.1,0.3c-0.1,0.4,0,0.6,0.2,0.6s0.3-0.2,0.4-0.6c0.1-0.5,0-0.7-0.5-1.3c-0.6-0.7-0.8-1-0.6-1.9
			c0.2-0.8,0.6-1.2,1.4-1.2c1.2,0,1.3,0.9,1.2,1.6v0.1h-1v-0.2c0.1-0.4,0.1-0.6-0.2-0.6c-0.2,0-0.3,0.1-0.3,0.4
			c-0.1,0.4,0,0.6,0.4,1c0.8,0.9,0.9,1.3,0.7,2.2c-0.2,0.9-0.7,1.3-1.6,1.3c-1,0-1.4-0.6-1.2-1.6v-0.1H88.4z"/>
		<path class="st28" d="M92.5,186.9l-1.2,5.6h-1.1l1.2-5.6H92.5z"/>
		<path class="st28" d="M93.5,187.8h-0.8l0.2-0.9h2.7l-0.2,0.9h-0.8l-1,4.7h-1.1L93.5,187.8z"/>
		<path class="st28" d="M97.1,186.9l-1.2,5.6h-1.1l1.2-5.6H97.1z"/>
		<path class="st28" d="M99.3,190h-1.2l-0.3,1.6h1.4l-0.3,0.9h-2.3l1.2-5.6h2.3l-0.2,0.9h-1.2l-0.3,1.3h1.2L99.3,190z"/>
		<path class="st28" d="M100.6,190.9l-0.1,0.3c-0.1,0.4,0,0.6,0.2,0.6s0.3-0.2,0.4-0.6c0.1-0.5,0-0.7-0.5-1.3
			c-0.6-0.7-0.8-1-0.6-1.9c0.2-0.8,0.6-1.2,1.4-1.2c1.2,0,1.3,0.9,1.2,1.6v0.1h-1v-0.2c0.1-0.4,0.1-0.6-0.2-0.6
			c-0.2,0-0.3,0.1-0.3,0.4c-0.1,0.4,0,0.6,0.4,1c0.7,0.9,0.9,1.3,0.7,2.2c-0.2,0.9-0.7,1.3-1.6,1.3c-1.1,0-1.4-0.6-1.2-1.6v-0.1
			H100.6z"/>
	</g>
</g>
<image style="overflow:visible;enable-background:new    ;" width="102" height="100" xlink:href="logo1.png"  transform="matrix(0.3298 0 0 0.3298 37.1507 204.4856)">
</image>
<image style="overflow:visible;enable-background:new    ;" width="753" height="1094" xlink:href="3.jpg"  transform="matrix(3.086173e-02 0 0 3.086173e-02 100.402 202.6803)">
</image>
<image style="overflow:visible;" width="1315" height="1376" xlink:href="3 (2).png"  transform="matrix(3.225416e-02 0 0 3.225416e-02 31.7929 244.9374)">
</image>
<image style="overflow:visible;" width="277" height="359" xlink:href="2 (2).png"  transform="matrix(0.1158 0 0 0.1158 94.8 249.8284)">
</image>
</svg>
